<?xml version="1.0" encoding="utf-8" standalone="no"?>
<!DOCTYPE svg PUBLIC "-//W3C//DTD SVG 1.1//EN"
  "http://www.w3.org/Graphics/SVG/1.1/DTD/svg11.dtd">
<!-- Created with matplotlib (https://matplotlib.org/) -->
<svg height="576pt" version="1.1" viewBox="0 0 648 576" width="648pt" xmlns="http://www.w3.org/2000/svg" xmlns:xlink="http://www.w3.org/1999/xlink">
 <defs>
  <style type="text/css">
*{stroke-linecap:butt;stroke-linejoin:round;}
  </style>
 </defs>
 <g id="figure_1">
  <g id="patch_1">
   <path d="M 0 576 
L 648 576 
L 648 0 
L 0 0 
z
" style="fill:none;"/>
  </g>
  <g id="axes_1">
   <g id="patch_2">
    <path d="M 106.259375 468.52 
L 531.0025 468.52 
L 531.0025 46.8 
L 106.259375 46.8 
z
" style="fill:none;"/>
   </g>
   <g id="matplotlib.axis_1">
    <g id="xtick_1">
     <g id="line2d_1">
      <defs>
       <path d="M 0 0 
L 0 3.5 
" id="m94ee52b12f" style="stroke:#000000;stroke-width:0.8;"/>
      </defs>
      <g>
       <use style="stroke:#000000;stroke-width:0.8;" x="106.259375" xlink:href="#m94ee52b12f" y="468.52"/>
      </g>
     </g>
     <g id="text_1">
      <!-- 0 -->
      <defs>
       <path d="M 31.78125 66.40625 
Q 24.171875 66.40625 20.328125 58.90625 
Q 16.5 51.421875 16.5 36.375 
Q 16.5 21.390625 20.328125 13.890625 
Q 24.171875 6.390625 31.78125 6.390625 
Q 39.453125 6.390625 43.28125 13.890625 
Q 47.125 21.390625 47.125 36.375 
Q 47.125 51.421875 43.28125 58.90625 
Q 39.453125 66.40625 31.78125 66.40625 
z
M 31.78125 74.21875 
Q 44.046875 74.21875 50.515625 64.515625 
Q 56.984375 54.828125 56.984375 36.375 
Q 56.984375 17.96875 50.515625 8.265625 
Q 44.046875 -1.421875 31.78125 -1.421875 
Q 19.53125 -1.421875 13.0625 8.265625 
Q 6.59375 17.96875 6.59375 36.375 
Q 6.59375 54.828125 13.0625 64.515625 
Q 19.53125 74.21875 31.78125 74.21875 
z
" id="DejaVuSans-48"/>
      </defs>
      <g transform="translate(96.079375 499.835)scale(0.32 -0.32)">
       <use xlink:href="#DejaVuSans-48"/>
      </g>
     </g>
    </g>
    <g id="xtick_2">
     <g id="line2d_2">
      <g>
       <use style="stroke:#000000;stroke-width:0.8;" x="276.156625" xlink:href="#m94ee52b12f" y="468.52"/>
      </g>
     </g>
     <g id="text_2">
      <!-- 1 -->
      <defs>
       <path d="M 12.40625 8.296875 
L 28.515625 8.296875 
L 28.515625 63.921875 
L 10.984375 60.40625 
L 10.984375 69.390625 
L 28.421875 72.90625 
L 38.28125 72.90625 
L 38.28125 8.296875 
L 54.390625 8.296875 
L 54.390625 0 
L 12.40625 0 
z
" id="DejaVuSans-49"/>
      </defs>
      <g transform="translate(265.976625 499.835)scale(0.32 -0.32)">
       <use xlink:href="#DejaVuSans-49"/>
      </g>
     </g>
    </g>
    <g id="xtick_3">
     <g id="line2d_3">
      <g>
       <use style="stroke:#000000;stroke-width:0.8;" x="446.053875" xlink:href="#m94ee52b12f" y="468.52"/>
      </g>
     </g>
     <g id="text_3">
      <!-- 2 -->
      <defs>
       <path d="M 19.1875 8.296875 
L 53.609375 8.296875 
L 53.609375 0 
L 7.328125 0 
L 7.328125 8.296875 
Q 12.9375 14.109375 22.625 23.890625 
Q 32.328125 33.6875 34.8125 36.53125 
Q 39.546875 41.84375 41.421875 45.53125 
Q 43.3125 49.21875 43.3125 52.78125 
Q 43.3125 58.59375 39.234375 62.25 
Q 35.15625 65.921875 28.609375 65.921875 
Q 23.96875 65.921875 18.8125 64.3125 
Q 13.671875 62.703125 7.8125 59.421875 
L 7.8125 69.390625 
Q 13.765625 71.78125 18.9375 73 
Q 24.125 74.21875 28.421875 74.21875 
Q 39.75 74.21875 46.484375 68.546875 
Q 53.21875 62.890625 53.21875 53.421875 
Q 53.21875 48.921875 51.53125 44.890625 
Q 49.859375 40.875 45.40625 35.40625 
Q 44.1875 33.984375 37.640625 27.21875 
Q 31.109375 20.453125 19.1875 8.296875 
z
" id="DejaVuSans-50"/>
      </defs>
      <g transform="translate(435.873875 499.835)scale(0.32 -0.32)">
       <use xlink:href="#DejaVuSans-50"/>
      </g>
     </g>
    </g>
    <g id="text_4">
     <!-- 10k steps -->
     <defs>
      <path d="M 9.078125 75.984375 
L 18.109375 75.984375 
L 18.109375 31.109375 
L 44.921875 54.6875 
L 56.390625 54.6875 
L 27.390625 29.109375 
L 57.625 0 
L 45.90625 0 
L 18.109375 26.703125 
L 18.109375 0 
L 9.078125 0 
z
" id="DejaVuSans-107"/>
      <path id="DejaVuSans-32"/>
      <path d="M 44.28125 53.078125 
L 44.28125 44.578125 
Q 40.484375 46.53125 36.375 47.5 
Q 32.28125 48.484375 27.875 48.484375 
Q 21.1875 48.484375 17.84375 46.4375 
Q 14.5 44.390625 14.5 40.28125 
Q 14.5 37.15625 16.890625 35.375 
Q 19.28125 33.59375 26.515625 31.984375 
L 29.59375 31.296875 
Q 39.15625 29.25 43.1875 25.515625 
Q 47.21875 21.78125 47.21875 15.09375 
Q 47.21875 7.46875 41.1875 3.015625 
Q 35.15625 -1.421875 24.609375 -1.421875 
Q 20.21875 -1.421875 15.453125 -0.5625 
Q 10.6875 0.296875 5.421875 2 
L 5.421875 11.28125 
Q 10.40625 8.6875 15.234375 7.390625 
Q 20.0625 6.109375 24.8125 6.109375 
Q 31.15625 6.109375 34.5625 8.28125 
Q 37.984375 10.453125 37.984375 14.40625 
Q 37.984375 18.0625 35.515625 20.015625 
Q 33.0625 21.96875 24.703125 23.78125 
L 21.578125 24.515625 
Q 13.234375 26.265625 9.515625 29.90625 
Q 5.8125 33.546875 5.8125 39.890625 
Q 5.8125 47.609375 11.28125 51.796875 
Q 16.75 56 26.8125 56 
Q 31.78125 56 36.171875 55.265625 
Q 40.578125 54.546875 44.28125 53.078125 
z
" id="DejaVuSans-115"/>
      <path d="M 18.3125 70.21875 
L 18.3125 54.6875 
L 36.8125 54.6875 
L 36.8125 47.703125 
L 18.3125 47.703125 
L 18.3125 18.015625 
Q 18.3125 11.328125 20.140625 9.421875 
Q 21.96875 7.515625 27.59375 7.515625 
L 36.8125 7.515625 
L 36.8125 0 
L 27.59375 0 
Q 17.1875 0 13.234375 3.875 
Q 9.28125 7.765625 9.28125 18.015625 
L 9.28125 47.703125 
L 2.6875 47.703125 
L 2.6875 54.6875 
L 9.28125 54.6875 
L 9.28125 70.21875 
z
" id="DejaVuSans-116"/>
      <path d="M 56.203125 29.59375 
L 56.203125 25.203125 
L 14.890625 25.203125 
Q 15.484375 15.921875 20.484375 11.0625 
Q 25.484375 6.203125 34.421875 6.203125 
Q 39.59375 6.203125 44.453125 7.46875 
Q 49.3125 8.734375 54.109375 11.28125 
L 54.109375 2.78125 
Q 49.265625 0.734375 44.1875 -0.34375 
Q 39.109375 -1.421875 33.890625 -1.421875 
Q 20.796875 -1.421875 13.15625 6.1875 
Q 5.515625 13.8125 5.515625 26.8125 
Q 5.515625 40.234375 12.765625 48.109375 
Q 20.015625 56 32.328125 56 
Q 43.359375 56 49.78125 48.890625 
Q 56.203125 41.796875 56.203125 29.59375 
z
M 47.21875 32.234375 
Q 47.125 39.59375 43.09375 43.984375 
Q 39.0625 48.390625 32.421875 48.390625 
Q 24.90625 48.390625 20.390625 44.140625 
Q 15.875 39.890625 15.1875 32.171875 
z
" id="DejaVuSans-101"/>
      <path d="M 18.109375 8.203125 
L 18.109375 -20.796875 
L 9.078125 -20.796875 
L 9.078125 54.6875 
L 18.109375 54.6875 
L 18.109375 46.390625 
Q 20.953125 51.265625 25.265625 53.625 
Q 29.59375 56 35.59375 56 
Q 45.5625 56 51.78125 48.09375 
Q 58.015625 40.1875 58.015625 27.296875 
Q 58.015625 14.40625 51.78125 6.484375 
Q 45.5625 -1.421875 35.59375 -1.421875 
Q 29.59375 -1.421875 25.265625 0.953125 
Q 20.953125 3.328125 18.109375 8.203125 
z
M 48.6875 27.296875 
Q 48.6875 37.203125 44.609375 42.84375 
Q 40.53125 48.484375 33.40625 48.484375 
Q 26.265625 48.484375 22.1875 42.84375 
Q 18.109375 37.203125 18.109375 27.296875 
Q 18.109375 17.390625 22.1875 11.75 
Q 26.265625 6.109375 33.40625 6.109375 
Q 40.53125 6.109375 44.609375 11.75 
Q 48.6875 17.390625 48.6875 27.296875 
z
" id="DejaVuSans-112"/>
     </defs>
     <g transform="translate(240.975938 534.805)scale(0.32 -0.32)">
      <use xlink:href="#DejaVuSans-49"/>
      <use x="63.623047" xlink:href="#DejaVuSans-48"/>
      <use x="127.246094" xlink:href="#DejaVuSans-107"/>
      <use x="185.15625" xlink:href="#DejaVuSans-32"/>
      <use x="216.943359" xlink:href="#DejaVuSans-115"/>
      <use x="269.042969" xlink:href="#DejaVuSans-116"/>
      <use x="308.251953" xlink:href="#DejaVuSans-101"/>
      <use x="369.775391" xlink:href="#DejaVuSans-112"/>
      <use x="433.251953" xlink:href="#DejaVuSans-115"/>
     </g>
    </g>
   </g>
   <g id="matplotlib.axis_2">
    <g id="ytick_1">
     <g id="line2d_4">
      <defs>
       <path d="M 0 0 
L -3.5 0 
" id="m50b24e766c" style="stroke:#000000;stroke-width:0.8;"/>
      </defs>
      <g>
       <use style="stroke:#000000;stroke-width:0.8;" x="106.259375" xlink:href="#m50b24e766c" y="468.52"/>
      </g>
     </g>
     <g id="text_5">
      <!-- 0.0 -->
      <defs>
       <path d="M 10.6875 12.40625 
L 21 12.40625 
L 21 0 
L 10.6875 0 
z
" id="DejaVuSans-46"/>
      </defs>
      <g transform="translate(48.369375 480.6775)scale(0.32 -0.32)">
       <use xlink:href="#DejaVuSans-48"/>
       <use x="63.623047" xlink:href="#DejaVuSans-46"/>
       <use x="95.410156" xlink:href="#DejaVuSans-48"/>
      </g>
     </g>
    </g>
    <g id="ytick_2">
     <g id="line2d_5">
      <g>
       <use style="stroke:#000000;stroke-width:0.8;" x="106.259375" xlink:href="#m50b24e766c" y="327.946667"/>
      </g>
     </g>
     <g id="text_6">
      <!-- 0.1 -->
      <g transform="translate(48.369375 340.104167)scale(0.32 -0.32)">
       <use xlink:href="#DejaVuSans-48"/>
       <use x="63.623047" xlink:href="#DejaVuSans-46"/>
       <use x="95.410156" xlink:href="#DejaVuSans-49"/>
      </g>
     </g>
    </g>
    <g id="ytick_3">
     <g id="line2d_6">
      <g>
       <use style="stroke:#000000;stroke-width:0.8;" x="106.259375" xlink:href="#m50b24e766c" y="187.373333"/>
      </g>
     </g>
     <g id="text_7">
      <!-- 0.2 -->
      <g transform="translate(48.369375 199.530833)scale(0.32 -0.32)">
       <use xlink:href="#DejaVuSans-48"/>
       <use x="63.623047" xlink:href="#DejaVuSans-46"/>
       <use x="95.410156" xlink:href="#DejaVuSans-50"/>
      </g>
     </g>
    </g>
    <g id="ytick_4">
     <g id="line2d_7">
      <g>
       <use style="stroke:#000000;stroke-width:0.8;" x="106.259375" xlink:href="#m50b24e766c" y="46.8"/>
      </g>
     </g>
     <g id="text_8">
      <!-- 0.3 -->
      <defs>
       <path d="M 40.578125 39.3125 
Q 47.65625 37.796875 51.625 33 
Q 55.609375 28.21875 55.609375 21.1875 
Q 55.609375 10.40625 48.1875 4.484375 
Q 40.765625 -1.421875 27.09375 -1.421875 
Q 22.515625 -1.421875 17.65625 -0.515625 
Q 12.796875 0.390625 7.625 2.203125 
L 7.625 11.71875 
Q 11.71875 9.328125 16.59375 8.109375 
Q 21.484375 6.890625 26.8125 6.890625 
Q 36.078125 6.890625 40.9375 10.546875 
Q 45.796875 14.203125 45.796875 21.1875 
Q 45.796875 27.640625 41.28125 31.265625 
Q 36.765625 34.90625 28.71875 34.90625 
L 20.21875 34.90625 
L 20.21875 43.015625 
L 29.109375 43.015625 
Q 36.375 43.015625 40.234375 45.921875 
Q 44.09375 48.828125 44.09375 54.296875 
Q 44.09375 59.90625 40.109375 62.90625 
Q 36.140625 65.921875 28.71875 65.921875 
Q 24.65625 65.921875 20.015625 65.03125 
Q 15.375 64.15625 9.8125 62.3125 
L 9.8125 71.09375 
Q 15.4375 72.65625 20.34375 73.4375 
Q 25.25 74.21875 29.59375 74.21875 
Q 40.828125 74.21875 47.359375 69.109375 
Q 53.90625 64.015625 53.90625 55.328125 
Q 53.90625 49.265625 50.4375 45.09375 
Q 46.96875 40.921875 40.578125 39.3125 
z
" id="DejaVuSans-51"/>
      </defs>
      <g transform="translate(48.369375 58.9575)scale(0.32 -0.32)">
       <use xlink:href="#DejaVuSans-48"/>
       <use x="63.623047" xlink:href="#DejaVuSans-46"/>
       <use x="95.410156" xlink:href="#DejaVuSans-51"/>
      </g>
     </g>
    </g>
    <g id="text_9">
     <!-- $\delta$ -->
     <defs>
      <path d="M 54.25 63.328125 
Q 49.953125 66.75 38.28125 66.75 
Q 25.921875 66.75 24.8125 61.03125 
Q 23.921875 56.546875 36.375 54.203125 
Q 46.140625 52.390625 50.828125 46.921875 
Q 56.5 40.328125 53.859375 26.8125 
Q 51.3125 13.875 43.171875 6.25 
Q 34.96875 -1.421875 23.25 -1.421875 
Q 11.578125 -1.421875 6.34375 6.25 
Q 1.125 13.875 3.765625 27.296875 
Q 5.671875 37.25 13.921875 45.3125 
Q 17.140625 48.4375 21.140625 50.203125 
Q 14.265625 54.046875 15.625 60.9375 
Q 18.21875 74.21875 39.75 74.21875 
Q 50.53125 74.21875 55.71875 70.796875 
z
M 27.390625 47.75 
Q 23.828125 46.34375 20.40625 42.78125 
Q 15.140625 37.25 13.234375 27.296875 
Q 11.28125 17.390625 14.359375 11.8125 
Q 17.484375 6.203125 24.75 6.203125 
Q 31.9375 6.203125 37.203125 11.859375 
Q 42.53125 17.53125 44.34375 26.8125 
Q 46.1875 36.53125 42.671875 41.21875 
Q 38.921875 46.234375 32.859375 46.78125 
Q 29.78125 47.078125 27.390625 47.75 
z
" id="DejaVuSans-Oblique-948"/>
     </defs>
     <g transform="translate(34.449375 251.005)scale(0.32 -0.32)">
      <use transform="translate(0 0.78125)" xlink:href="#DejaVuSans-Oblique-948"/>
     </g>
    </g>
   </g>
   <g id="line2d_8">
    <defs>
     <path d="M 0 6 
C 1.591219 6 3.117479 5.367802 4.242641 4.242641 
C 5.367802 3.117479 6 1.591219 6 0 
C 6 -1.591219 5.367802 -3.117479 4.242641 -4.242641 
C 3.117479 -5.367802 1.591219 -6 0 -6 
C -1.591219 -6 -3.117479 -5.367802 -4.242641 -4.242641 
C -5.367802 -3.117479 -6 -1.591219 -6 0 
C -6 1.591219 -5.367802 3.117479 -4.242641 4.242641 
C -3.117479 5.367802 -1.591219 6 0 6 
z
" id="m69d6a508bf" style="stroke:#ff0000;"/>
    </defs>
    <g clip-path="url(#pb2ffdf7f25)">
     <use style="fill:#ff0000;stroke:#ff0000;" x="106.276365" xlink:href="#m69d6a508bf" y="432.989667"/>
     <use style="fill:#ff0000;stroke:#ff0000;" x="114.754237" xlink:href="#m69d6a508bf" y="244.544179"/>
     <use style="fill:#ff0000;stroke:#ff0000;" x="123.2491" xlink:href="#m69d6a508bf" y="196.229348"/>
     <use style="fill:#ff0000;stroke:#ff0000;" x="131.743963" xlink:href="#m69d6a508bf" y="221.801245"/>
     <use style="fill:#ff0000;stroke:#ff0000;" x="140.238825" xlink:href="#m69d6a508bf" y="222.802221"/>
     <use style="fill:#ff0000;stroke:#ff0000;" x="148.733688" xlink:href="#m69d6a508bf" y="229.904259"/>
     <use style="fill:#ff0000;stroke:#ff0000;" x="157.22855" xlink:href="#m69d6a508bf" y="216.935578"/>
     <use style="fill:#ff0000;stroke:#ff0000;" x="165.723412" xlink:href="#m69d6a508bf" y="95.745845"/>
     <use style="fill:#ff0000;stroke:#ff0000;" x="174.218275" xlink:href="#m69d6a508bf" y="27.454117"/>
     <use style="fill:#ff0000;stroke:#ff0000;" x="182.713138" xlink:href="#m69d6a508bf" y="205.481035"/>
     <use style="fill:#ff0000;stroke:#ff0000;" x="191.208" xlink:href="#m69d6a508bf" y="86.081081"/>
     <use style="fill:#ff0000;stroke:#ff0000;" x="199.702863" xlink:href="#m69d6a508bf" y="81.579223"/>
     <use style="fill:#ff0000;stroke:#ff0000;" x="208.197725" xlink:href="#m69d6a508bf" y="134.380936"/>
     <use style="fill:#ff0000;stroke:#ff0000;" x="216.692588" xlink:href="#m69d6a508bf" y="174.14589"/>
     <use style="fill:#ff0000;stroke:#ff0000;" x="225.18745" xlink:href="#m69d6a508bf" y="185.292825"/>
     <use style="fill:#ff0000;stroke:#ff0000;" x="233.682313" xlink:href="#m69d6a508bf" y="201.809539"/>
     <use style="fill:#ff0000;stroke:#ff0000;" x="242.177175" xlink:href="#m69d6a508bf" y="288.924818"/>
     <use style="fill:#ff0000;stroke:#ff0000;" x="250.672038" xlink:href="#m69d6a508bf" y="280.060735"/>
     <use style="fill:#ff0000;stroke:#ff0000;" x="259.1669" xlink:href="#m69d6a508bf" y="240.895411"/>
     <use style="fill:#ff0000;stroke:#ff0000;" x="267.661763" xlink:href="#m69d6a508bf" y="200.241799"/>
     <use style="fill:#ff0000;stroke:#ff0000;" x="276.156625" xlink:href="#m69d6a508bf" y="253.340289"/>
     <use style="fill:#ff0000;stroke:#ff0000;" x="284.651488" xlink:href="#m69d6a508bf" y="282.057157"/>
     <use style="fill:#ff0000;stroke:#ff0000;" x="293.14635" xlink:href="#m69d6a508bf" y="289.255006"/>
     <use style="fill:#ff0000;stroke:#ff0000;" x="301.641213" xlink:href="#m69d6a508bf" y="318.524028"/>
     <use style="fill:#ff0000;stroke:#ff0000;" x="310.136075" xlink:href="#m69d6a508bf" y="314.907812"/>
     <use style="fill:#ff0000;stroke:#ff0000;" x="318.630938" xlink:href="#m69d6a508bf" y="300.321086"/>
     <use style="fill:#ff0000;stroke:#ff0000;" x="327.1258" xlink:href="#m69d6a508bf" y="330.507076"/>
     <use style="fill:#ff0000;stroke:#ff0000;" x="335.620663" xlink:href="#m69d6a508bf" y="345.650438"/>
     <use style="fill:#ff0000;stroke:#ff0000;" x="344.115525" xlink:href="#m69d6a508bf" y="341.919484"/>
     <use style="fill:#ff0000;stroke:#ff0000;" x="352.610388" xlink:href="#m69d6a508bf" y="345.20503"/>
     <use style="fill:#ff0000;stroke:#ff0000;" x="361.10525" xlink:href="#m69d6a508bf" y="368.608855"/>
     <use style="fill:#ff0000;stroke:#ff0000;" x="369.600113" xlink:href="#m69d6a508bf" y="375.239803"/>
     <use style="fill:#ff0000;stroke:#ff0000;" x="378.094975" xlink:href="#m69d6a508bf" y="349.12145"/>
     <use style="fill:#ff0000;stroke:#ff0000;" x="386.589838" xlink:href="#m69d6a508bf" y="383.397557"/>
     <use style="fill:#ff0000;stroke:#ff0000;" x="395.0847" xlink:href="#m69d6a508bf" y="395.104135"/>
     <use style="fill:#ff0000;stroke:#ff0000;" x="403.579563" xlink:href="#m69d6a508bf" y="399.496623"/>
     <use style="fill:#ff0000;stroke:#ff0000;" x="412.074425" xlink:href="#m69d6a508bf" y="391.865463"/>
     <use style="fill:#ff0000;stroke:#ff0000;" x="420.569288" xlink:href="#m69d6a508bf" y="407.655932"/>
     <use style="fill:#ff0000;stroke:#ff0000;" x="429.06415" xlink:href="#m69d6a508bf" y="404.610261"/>
     <use style="fill:#ff0000;stroke:#ff0000;" x="437.559013" xlink:href="#m69d6a508bf" y="417.186053"/>
     <use style="fill:#ff0000;stroke:#ff0000;" x="446.053875" xlink:href="#m69d6a508bf" y="415.695377"/>
     <use style="fill:#ff0000;stroke:#ff0000;" x="454.548738" xlink:href="#m69d6a508bf" y="421.203018"/>
     <use style="fill:#ff0000;stroke:#ff0000;" x="463.0436" xlink:href="#m69d6a508bf" y="415.927659"/>
     <use style="fill:#ff0000;stroke:#ff0000;" x="471.538463" xlink:href="#m69d6a508bf" y="423.507331"/>
     <use style="fill:#ff0000;stroke:#ff0000;" x="480.033325" xlink:href="#m69d6a508bf" y="430.969354"/>
     <use style="fill:#ff0000;stroke:#ff0000;" x="488.528188" xlink:href="#m69d6a508bf" y="433.512835"/>
     <use style="fill:#ff0000;stroke:#ff0000;" x="497.02305" xlink:href="#m69d6a508bf" y="432.250238"/>
     <use style="fill:#ff0000;stroke:#ff0000;" x="505.517913" xlink:href="#m69d6a508bf" y="440.851171"/>
     <use style="fill:#ff0000;stroke:#ff0000;" x="514.012775" xlink:href="#m69d6a508bf" y="439.391538"/>
     <use style="fill:#ff0000;stroke:#ff0000;" x="522.507638" xlink:href="#m69d6a508bf" y="445.660543"/>
     <use style="fill:#ff0000;stroke:#ff0000;" x="531.0025" xlink:href="#m69d6a508bf" y="449.104695"/>
    </g>
   </g>
   <g id="line2d_9">
    <path clip-path="url(#pb2ffdf7f25)" d="M 106.259375 437.593867 
L 531.0025 437.593867 
" style="fill:none;stroke:#ff0000;stroke-dasharray:11.1,4.8;stroke-dashoffset:0;stroke-width:3;"/>
   </g>
   <g id="patch_3">
    <path d="M 106.259375 468.52 
L 106.259375 46.8 
" style="fill:none;stroke:#000000;stroke-linecap:square;stroke-linejoin:miter;stroke-width:0.8;"/>
   </g>
   <g id="patch_4">
    <path d="M 531.0025 468.52 
L 531.0025 46.8 
" style="fill:none;stroke:#000000;stroke-linecap:square;stroke-linejoin:miter;stroke-width:0.8;"/>
   </g>
   <g id="patch_5">
    <path d="M 106.259375 468.52 
L 531.0025 468.52 
" style="fill:none;stroke:#000000;stroke-linecap:square;stroke-linejoin:miter;stroke-width:0.8;"/>
   </g>
   <g id="patch_6">
    <path d="M 106.259375 46.8 
L 531.0025 46.8 
" style="fill:none;stroke:#000000;stroke-linecap:square;stroke-linejoin:miter;stroke-width:0.8;"/>
   </g>
  </g>
  <g id="axes_2">
   <g id="matplotlib.axis_3">
    <g id="ytick_5">
     <g id="line2d_10">
      <defs>
       <path d="M 0 0 
L 3.5 0 
" id="meae16da3e2" style="stroke:#000000;stroke-width:0.8;"/>
      </defs>
      <g>
       <use style="stroke:#000000;stroke-width:0.8;" x="531.0025" xlink:href="#meae16da3e2" y="468.52"/>
      </g>
     </g>
     <g id="text_10">
      <!-- 0 -->
      <g transform="translate(538.0025 480.6775)scale(0.32 -0.32)">
       <use xlink:href="#DejaVuSans-48"/>
      </g>
     </g>
    </g>
    <g id="ytick_6">
     <g id="line2d_11">
      <g>
       <use style="stroke:#000000;stroke-width:0.8;" x="531.0025" xlink:href="#meae16da3e2" y="299.832"/>
      </g>
     </g>
     <g id="text_11">
      <!-- 200 -->
      <g transform="translate(538.0025 311.9895)scale(0.32 -0.32)">
       <use xlink:href="#DejaVuSans-50"/>
       <use x="63.623047" xlink:href="#DejaVuSans-48"/>
       <use x="127.246094" xlink:href="#DejaVuSans-48"/>
      </g>
     </g>
    </g>
    <g id="ytick_7">
     <g id="line2d_12">
      <g>
       <use style="stroke:#000000;stroke-width:0.8;" x="531.0025" xlink:href="#meae16da3e2" y="131.144"/>
      </g>
     </g>
     <g id="text_12">
      <!-- 400 -->
      <defs>
       <path d="M 37.796875 64.3125 
L 12.890625 25.390625 
L 37.796875 25.390625 
z
M 35.203125 72.90625 
L 47.609375 72.90625 
L 47.609375 25.390625 
L 58.015625 25.390625 
L 58.015625 17.1875 
L 47.609375 17.1875 
L 47.609375 0 
L 37.796875 0 
L 37.796875 17.1875 
L 4.890625 17.1875 
L 4.890625 26.703125 
z
" id="DejaVuSans-52"/>
      </defs>
      <g transform="translate(538.0025 143.3015)scale(0.32 -0.32)">
       <use xlink:href="#DejaVuSans-52"/>
       <use x="63.623047" xlink:href="#DejaVuSans-48"/>
       <use x="127.246094" xlink:href="#DejaVuSans-48"/>
      </g>
     </g>
    </g>
    <g id="text_13">
     <!-- $\eta$ -->
     <defs>
      <path d="M 57.859375 33.015625 
L 47.40625 -20.796875 
L 38.421875 -20.796875 
L 48.828125 32.71875 
Q 50.34375 40.484375 48.046875 44.34375 
Q 45.796875 48.1875 39.75 48.1875 
Q 32.46875 48.1875 27.34375 43.5625 
Q 22.265625 38.921875 20.703125 30.90625 
L 14.703125 0 
L 5.671875 0 
L 16.3125 54.6875 
L 25.34375 54.6875 
L 23.6875 46.1875 
Q 27.828125 51.125 32.71875 53.5625 
Q 37.546875 56 43.265625 56 
Q 52.6875 56 56.390625 50.203125 
Q 60.0625 44.34375 57.859375 33.015625 
z
" id="DejaVuSans-Oblique-951"/>
     </defs>
     <g transform="translate(592.8425 281.91)scale(0.32 -0.32)">
      <use xlink:href="#DejaVuSans-Oblique-951"/>
     </g>
    </g>
   </g>
   <g id="line2d_13">
    <defs>
     <path d="M -6 6 
L 6 6 
L 6 -6 
L -6 -6 
z
" id="m510fce587d" style="stroke:#000000;stroke-linejoin:miter;"/>
    </defs>
    <g clip-path="url(#pb2ffdf7f25)">
     <use style="stroke:#000000;stroke-linejoin:miter;" x="106.276365" xlink:href="#m510fce587d" y="283.25154"/>
     <use style="stroke:#000000;stroke-linejoin:miter;" x="114.754237" xlink:href="#m510fce587d" y="213.972624"/>
     <use style="stroke:#000000;stroke-linejoin:miter;" x="123.2491" xlink:href="#m510fce587d" y="192.818222"/>
     <use style="stroke:#000000;stroke-linejoin:miter;" x="131.743963" xlink:href="#m510fce587d" y="192.15836"/>
     <use style="stroke:#000000;stroke-linejoin:miter;" x="140.238825" xlink:href="#m510fce587d" y="193.483878"/>
     <use style="stroke:#000000;stroke-linejoin:miter;" x="148.733688" xlink:href="#m510fce587d" y="167.923746"/>
     <use style="stroke:#000000;stroke-linejoin:miter;" x="157.22855" xlink:href="#m510fce587d" y="146.029105"/>
     <use style="stroke:#000000;stroke-linejoin:miter;" x="165.723412" xlink:href="#m510fce587d" y="155.262079"/>
     <use style="stroke:#000000;stroke-linejoin:miter;" x="174.218275" xlink:href="#m510fce587d" y="163.923"/>
     <use style="stroke:#000000;stroke-linejoin:miter;" x="182.713138" xlink:href="#m510fce587d" y="175.069188"/>
     <use style="stroke:#000000;stroke-linejoin:miter;" x="191.208" xlink:href="#m510fce587d" y="184.977345"/>
     <use style="stroke:#000000;stroke-linejoin:miter;" x="199.702863" xlink:href="#m510fce587d" y="197.395212"/>
     <use style="stroke:#000000;stroke-linejoin:miter;" x="208.197725" xlink:href="#m510fce587d" y="206.247931"/>
     <use style="stroke:#000000;stroke-linejoin:miter;" x="216.692588" xlink:href="#m510fce587d" y="211.877802"/>
     <use style="stroke:#000000;stroke-linejoin:miter;" x="225.18745" xlink:href="#m510fce587d" y="215.834058"/>
     <use style="stroke:#000000;stroke-linejoin:miter;" x="233.682313" xlink:href="#m510fce587d" y="220.228377"/>
     <use style="stroke:#000000;stroke-linejoin:miter;" x="242.177175" xlink:href="#m510fce587d" y="224.145456"/>
     <use style="stroke:#000000;stroke-linejoin:miter;" x="250.672038" xlink:href="#m510fce587d" y="229.094369"/>
     <use style="stroke:#000000;stroke-linejoin:miter;" x="259.1669" xlink:href="#m510fce587d" y="231.96476"/>
     <use style="stroke:#000000;stroke-linejoin:miter;" x="267.661763" xlink:href="#m510fce587d" y="234.909208"/>
     <use style="stroke:#000000;stroke-linejoin:miter;" x="276.156625" xlink:href="#m510fce587d" y="239.856182"/>
     <use style="stroke:#000000;stroke-linejoin:miter;" x="284.651488" xlink:href="#m510fce587d" y="245.121022"/>
     <use style="stroke:#000000;stroke-linejoin:miter;" x="293.14635" xlink:href="#m510fce587d" y="248.092906"/>
     <use style="stroke:#000000;stroke-linejoin:miter;" x="301.641213" xlink:href="#m510fce587d" y="249.154614"/>
     <use style="stroke:#000000;stroke-linejoin:miter;" x="310.136075" xlink:href="#m510fce587d" y="251.283318"/>
     <use style="stroke:#000000;stroke-linejoin:miter;" x="318.630938" xlink:href="#m510fce587d" y="251.779167"/>
     <use style="stroke:#000000;stroke-linejoin:miter;" x="327.1258" xlink:href="#m510fce587d" y="252.625876"/>
     <use style="stroke:#000000;stroke-linejoin:miter;" x="335.620663" xlink:href="#m510fce587d" y="253.779673"/>
     <use style="stroke:#000000;stroke-linejoin:miter;" x="344.115525" xlink:href="#m510fce587d" y="254.604507"/>
     <use style="stroke:#000000;stroke-linejoin:miter;" x="352.610388" xlink:href="#m510fce587d" y="257.383585"/>
     <use style="stroke:#000000;stroke-linejoin:miter;" x="361.10525" xlink:href="#m510fce587d" y="257.890288"/>
     <use style="stroke:#000000;stroke-linejoin:miter;" x="369.600113" xlink:href="#m510fce587d" y="259.534138"/>
     <use style="stroke:#000000;stroke-linejoin:miter;" x="378.094975" xlink:href="#m510fce587d" y="260.971475"/>
     <use style="stroke:#000000;stroke-linejoin:miter;" x="386.589838" xlink:href="#m510fce587d" y="262.120247"/>
     <use style="stroke:#000000;stroke-linejoin:miter;" x="395.0847" xlink:href="#m510fce587d" y="263.229529"/>
     <use style="stroke:#000000;stroke-linejoin:miter;" x="403.579563" xlink:href="#m510fce587d" y="264.753036"/>
     <use style="stroke:#000000;stroke-linejoin:miter;" x="412.074425" xlink:href="#m510fce587d" y="265.593362"/>
     <use style="stroke:#000000;stroke-linejoin:miter;" x="420.569288" xlink:href="#m510fce587d" y="266.02256"/>
     <use style="stroke:#000000;stroke-linejoin:miter;" x="429.06415" xlink:href="#m510fce587d" y="267.421518"/>
     <use style="stroke:#000000;stroke-linejoin:miter;" x="437.559013" xlink:href="#m510fce587d" y="269.607829"/>
     <use style="stroke:#000000;stroke-linejoin:miter;" x="446.053875" xlink:href="#m510fce587d" y="270.87662"/>
     <use style="stroke:#000000;stroke-linejoin:miter;" x="454.548738" xlink:href="#m510fce587d" y="271.395036"/>
     <use style="stroke:#000000;stroke-linejoin:miter;" x="463.0436" xlink:href="#m510fce587d" y="272.659118"/>
     <use style="stroke:#000000;stroke-linejoin:miter;" x="471.538463" xlink:href="#m510fce587d" y="273.704239"/>
     <use style="stroke:#000000;stroke-linejoin:miter;" x="480.033325" xlink:href="#m510fce587d" y="273.91198"/>
     <use style="stroke:#000000;stroke-linejoin:miter;" x="488.528188" xlink:href="#m510fce587d" y="276.208437"/>
     <use style="stroke:#000000;stroke-linejoin:miter;" x="497.02305" xlink:href="#m510fce587d" y="277.260062"/>
     <use style="stroke:#000000;stroke-linejoin:miter;" x="505.517913" xlink:href="#m510fce587d" y="277.793537"/>
     <use style="stroke:#000000;stroke-linejoin:miter;" x="514.012775" xlink:href="#m510fce587d" y="278.26368"/>
     <use style="stroke:#000000;stroke-linejoin:miter;" x="522.507638" xlink:href="#m510fce587d" y="277.755901"/>
     <use style="stroke:#000000;stroke-linejoin:miter;" x="531.0025" xlink:href="#m510fce587d" y="278.734995"/>
    </g>
   </g>
   <g id="patch_7">
    <path d="M 106.259375 468.52 
L 106.259375 46.8 
" style="fill:none;stroke:#000000;stroke-linecap:square;stroke-linejoin:miter;stroke-width:0.8;"/>
   </g>
   <g id="patch_8">
    <path d="M 531.0025 468.52 
L 531.0025 46.8 
" style="fill:none;stroke:#000000;stroke-linecap:square;stroke-linejoin:miter;stroke-width:0.8;"/>
   </g>
   <g id="patch_9">
    <path d="M 106.259375 468.52 
L 531.0025 468.52 
" style="fill:none;stroke:#000000;stroke-linecap:square;stroke-linejoin:miter;stroke-width:0.8;"/>
   </g>
   <g id="patch_10">
    <path d="M 106.259375 46.8 
L 531.0025 46.8 
" style="fill:none;stroke:#000000;stroke-linecap:square;stroke-linejoin:miter;stroke-width:0.8;"/>
   </g>
  </g>
 </g>
 <defs>
  <clipPath id="pb2ffdf7f25">
   <rect height="421.72" width="424.743125" x="106.259375" y="46.8"/>
  </clipPath>
 </defs>
</svg>
