<?xml version="1.0" encoding="utf-8" standalone="no"?>
<!DOCTYPE svg PUBLIC "-//W3C//DTD SVG 1.1//EN"
  "http://www.w3.org/Graphics/SVG/1.1/DTD/svg11.dtd">
<!-- Created with matplotlib (https://matplotlib.org/) -->
<svg height="1080pt" version="1.1" viewBox="0 0 1080 1080" width="1080pt" xmlns="http://www.w3.org/2000/svg" xmlns:xlink="http://www.w3.org/1999/xlink">
 <defs>
  <style type="text/css">
*{stroke-linecap:butt;stroke-linejoin:round;}
  </style>
 </defs>
 <g id="figure_1">
  <g id="patch_1">
   <path d="M 0 1080 
L 1080 1080 
L 1080 0 
L 0 0 
z
" style="fill:none;"/>
  </g>
  <g id="axes_1">
   <g id="Quiver_1">
    <path clip-path="url(#p14a5874774)" d="M 261.508456 466.093441 
L 213.078041 466.093441 
L 214.118313 468.173983 
L 203.715598 465.053169 
L 214.118313 461.932355 
L 213.078041 464.012898 
L 261.508456 464.012898 
L 261.508456 466.093441 
" style="fill:#0000ff;"/>
    <path clip-path="url(#p14a5874774)" d="M 278.929722 410.089847 
L 235.070616 410.089847 
L 236.110888 412.17039 
L 225.708173 409.049575 
L 236.110888 405.928761 
L 235.070616 408.009304 
L 278.929722 408.009304 
L 278.929722 410.089847 
" style="fill:#0000ff;"/>
    <path clip-path="url(#p14a5874774)" d="M 308.127748 387.455561 
L 271.930152 387.455561 
L 272.970423 389.536103 
L 262.567709 386.415289 
L 272.970423 383.294475 
L 271.930152 385.375018 
L 308.127748 385.375018 
L 308.127748 387.455561 
" style="fill:#0000ff;"/>
    <path clip-path="url(#p14a5874774)" d="M 336.063063 365.15822 
L 307.195643 365.15822 
L 308.235915 367.238763 
L 297.833201 364.117948 
L 308.235915 360.997134 
L 307.195643 363.077677 
L 336.063063 363.077677 
L 336.063063 365.15822 
" style="fill:#0000ff;"/>
    <path clip-path="url(#p14a5874774)" d="M 362.967858 339.079477 
L 341.160208 339.079477 
L 342.200479 341.16002 
L 331.797765 338.039205 
L 342.200479 334.918391 
L 341.160208 336.998934 
L 362.967858 336.998934 
L 362.967858 339.079477 
" style="fill:#0000ff;"/>
    <path clip-path="url(#p14a5874774)" d="M 307.27425 544.512986 
L 270.852698 544.512986 
L 271.892969 546.593529 
L 261.490255 543.472714 
L 271.892969 540.3519 
L 270.852698 542.432443 
L 307.27425 542.432443 
L 307.27425 544.512986 
" style="fill:#0000ff;"/>
    <path clip-path="url(#p14a5874774)" d="M 324.350918 487.244868 
L 292.410252 487.244868 
L 293.450524 489.325411 
L 283.04781 486.204597 
L 293.450524 483.083783 
L 292.410252 485.164325 
L 324.350918 485.164325 
L 324.350918 487.244868 
" style="fill:#0000ff;"/>
    <path clip-path="url(#p14a5874774)" d="M 360.91964 466.708848 
L 338.57454 466.708848 
L 339.614812 468.789391 
L 329.212097 465.668576 
L 339.614812 462.547762 
L 338.57454 464.628305 
L 360.91964 464.628305 
L 360.91964 466.708848 
" style="fill:#0000ff;"/>
    <path clip-path="url(#p14a5874774)" d="M 392.5573 438.01939 
L 378.513866 438.01939 
L 379.554137 440.099933 
L 369.151423 436.979119 
L 379.554137 433.858304 
L 378.513866 435.938847 
L 392.5573 435.938847 
L 392.5573 438.01939 
" style="fill:#0000ff;"/>
    <path clip-path="url(#p14a5874774)" d="M 417.168864 408.49619 
L 409.583459 408.49619 
L 410.623731 410.576733 
L 400.221016 407.455919 
L 410.623731 404.335105 
L 409.583459 406.415648 
L 417.168864 406.415648 
L 417.168864 408.49619 
" style="fill:#0000ff;"/>
    <path clip-path="url(#p14a5874774)" d="M 372.267709 628.631844 
L 352.900323 628.631844 
L 353.940594 630.712387 
L 343.53788 627.591573 
L 353.940594 624.470758 
L 352.900323 626.551301 
L 372.267709 626.551301 
L 372.267709 628.631844 
" style="fill:#0000ff;"/>
    <path clip-path="url(#p14a5874774)" d="M 375.089915 558.933177 
L 356.46307 558.933177 
L 357.503342 561.01372 
L 347.100627 557.892906 
L 357.503342 554.772091 
L 356.46307 556.852634 
L 375.089915 556.852634 
L 375.089915 558.933177 
" style="fill:#0000ff;"/>
    <path clip-path="url(#p14a5874774)" d="M 417.177614 543.689453 
L 409.594505 543.689453 
L 410.634776 545.769996 
L 400.232062 542.649182 
L 410.634776 539.528367 
L 409.594505 541.60891 
L 417.177614 541.60891 
L 417.177614 543.689453 
" style="fill:#0000ff;"/>
    <path clip-path="url(#p14a5874774)" d="M 461.937136 517.752012 
L 461.417063 517.752012 
L 461.937136 518.792158 
L 456.736403 517.231938 
L 461.937136 515.671718 
L 461.417063 516.711865 
L 461.937136 516.711865 
L 461.937136 517.752012 
" style="fill:#0000ff;"/>
    <path clip-path="url(#p14a5874774)" d="M 483.340851 482.077323 
L 482.820716 481.176421 
L 481.780444 481.176421 
L 481.260308 482.077323 
L 481.780444 482.978224 
L 482.820716 482.978224 
L 483.340851 482.077323 
L 482.820716 481.176421 
" style="fill:#0000ff;"/>
    <path clip-path="url(#p14a5874774)" d="M 499.923023 436.356068 
L 500.399692 436.356068 
L 499.923023 435.40273 
L 504.689717 436.832738 
L 499.923023 438.262746 
L 500.399692 437.309407 
L 499.923023 437.309407 
L 499.923023 436.356068 
" style="fill:#0000ff;"/>
    <path clip-path="url(#p14a5874774)" d="M 505.347972 386.102476 
L 505.966991 386.102476 
L 505.347972 384.864438 
L 511.538163 386.721495 
L 505.347972 388.578552 
L 505.966991 387.340514 
L 505.347972 387.340514 
L 505.347972 386.102476 
" style="fill:#0000ff;"/>
    <path clip-path="url(#p14a5874774)" d="M 510.630591 345.351159 
L 511.388225 345.351159 
L 510.630591 343.835891 
L 518.206931 346.108793 
L 510.630591 348.381696 
L 511.388225 346.866428 
L 510.630591 346.866428 
L 510.630591 345.351159 
" style="fill:#0000ff;"/>
    <path clip-path="url(#p14a5874774)" d="M 518.898619 310.489867 
L 519.873205 310.489867 
L 518.898619 308.540696 
L 528.644476 311.464453 
L 518.898619 314.38821 
L 519.873205 312.439039 
L 518.898619 312.439039 
L 518.898619 310.489867 
" style="fill:#0000ff;"/>
    <path clip-path="url(#p14a5874774)" d="M 526.819068 274.520461 
L 529.280793 274.520461 
L 528.240521 272.439918 
L 538.643236 275.560732 
L 528.240521 278.681547 
L 529.280793 276.601004 
L 526.819068 276.601004 
L 526.819068 274.520461 
" style="fill:#0000ff;"/>
    <path clip-path="url(#p14a5874774)" d="M 447.922617 686.784492 
L 447.034806 686.784492 
L 447.922617 688.560115 
L 439.044499 685.89668 
L 447.922617 683.233244 
L 447.034806 685.008868 
L 447.922617 685.008868 
L 447.922617 686.784492 
" style="fill:#0000ff;"/>
    <path clip-path="url(#p14a5874774)" d="M 433.778286 629.856728 
L 430.551163 629.856728 
L 431.591434 631.937271 
L 421.18872 628.816457 
L 431.591434 625.695643 
L 430.551163 627.776185 
L 433.778286 627.776185 
L 433.778286 629.856728 
" style="fill:#0000ff;"/>
    <path clip-path="url(#p14a5874774)" d="M 480.582044 614.749651 
L 481.10218 615.650552 
L 482.142451 615.650552 
L 482.662587 614.749651 
L 482.142451 613.848749 
L 481.10218 613.848749 
L 480.582044 614.749651 
L 481.10218 615.650552 
" style="fill:#0000ff;"/>
    <path clip-path="url(#p14a5874774)" d="M 547.317001 600.305159 
L 555.157346 600.305159 
L 554.117074 598.224616 
L 564.519789 601.345431 
L 554.117074 604.466245 
L 555.157346 602.385702 
L 547.317001 602.385702 
L 547.317001 600.305159 
" style="fill:#0000ff;"/>
    <path clip-path="url(#p14a5874774)" d="M 575.187213 557.743243 
L 590.340652 557.743243 
L 589.300381 555.6627 
L 599.703095 558.783514 
L 589.300381 561.904328 
L 590.340652 559.823786 
L 575.187213 559.823786 
L 575.187213 557.743243 
" style="fill:#0000ff;"/>
    <path clip-path="url(#p14a5874774)" d="M 582.905394 511.076457 
L 600.084069 511.076457 
L 599.043797 508.995914 
L 609.446512 512.116728 
L 599.043797 515.237542 
L 600.084069 513.156999 
L 582.905394 513.156999 
L 582.905394 511.076457 
" style="fill:#0000ff;"/>
    <path clip-path="url(#p14a5874774)" d="M 588.532611 471.728279 
L 607.187858 471.728279 
L 606.147586 469.647736 
L 616.5503 472.76855 
L 606.147586 475.889365 
L 607.187858 473.808822 
L 588.532611 473.808822 
L 588.532611 471.728279 
" style="fill:#0000ff;"/>
    <path clip-path="url(#p14a5874774)" d="M 582.063322 432.88632 
L 599.021039 432.88632 
L 597.980768 430.805777 
L 608.383482 433.926591 
L 597.980768 437.047406 
L 599.021039 434.966863 
L 582.063322 434.966863 
L 582.063322 432.88632 
" style="fill:#0000ff;"/>
    <path clip-path="url(#p14a5874774)" d="M 577.103336 389.593919 
L 592.759562 389.593919 
L 591.71929 387.513377 
L 602.122004 390.634191 
L 591.71929 393.755005 
L 592.759562 391.674462 
L 577.103336 391.674462 
L 577.103336 389.593919 
" style="fill:#0000ff;"/>
    <path clip-path="url(#p14a5874774)" d="M 583.759982 354.023088 
L 601.1629 354.023088 
L 600.122629 351.942545 
L 610.525343 355.063359 
L 600.122629 358.184173 
L 601.1629 356.103631 
L 583.759982 356.103631 
L 583.759982 354.023088 
" style="fill:#0000ff;"/>
    <path clip-path="url(#p14a5874774)" d="M 590.99749 315.597345 
L 610.299517 315.597345 
L 609.259246 313.516802 
L 619.66196 316.637616 
L 609.259246 319.758431 
L 610.299517 317.677888 
L 590.99749 317.677888 
L 590.99749 315.597345 
" style="fill:#0000ff;"/>
    <path clip-path="url(#p14a5874774)" d="M 599.604953 282.214559 
L 621.165562 282.214559 
L 620.125291 280.134016 
L 630.528005 283.25483 
L 620.125291 286.375645 
L 621.165562 284.295102 
L 599.604953 284.295102 
L 599.604953 282.214559 
" style="fill:#0000ff;"/>
    <path clip-path="url(#p14a5874774)" d="M 539.486507 691.613506 
L 545.272145 691.613506 
L 544.231873 689.532963 
L 554.634588 692.653778 
L 544.231873 695.774592 
L 545.272145 693.694049 
L 539.486507 693.694049 
L 539.486507 691.613506 
" style="fill:#0000ff;"/>
    <path clip-path="url(#p14a5874774)" d="M 628.997501 690.805626 
L 658.270662 690.805626 
L 657.230391 688.725083 
L 667.633105 691.845897 
L 657.230391 694.966711 
L 658.270662 692.886168 
L 628.997501 692.886168 
L 628.997501 690.805626 
" style="fill:#0000ff;"/>
    <path clip-path="url(#p14a5874774)" d="M 691.165075 659.408425 
L 736.750894 659.408425 
L 735.710623 657.327882 
L 746.113337 660.448697 
L 735.710623 663.569511 
L 736.750894 661.488968 
L 691.165075 661.488968 
L 691.165075 659.408425 
" style="fill:#0000ff;"/>
    <path clip-path="url(#p14a5874774)" d="M 702.00583 609.208489 
L 750.436244 609.208489 
L 749.395973 607.127947 
L 759.798687 610.248761 
L 749.395973 613.369575 
L 750.436244 611.289032 
L 702.00583 611.289032 
L 702.00583 609.208489 
" style="fill:#0000ff;"/>
    <path clip-path="url(#p14a5874774)" d="M 699.033636 553.216492 
L 746.684152 553.216492 
L 745.643881 551.135949 
L 756.046595 554.256763 
L 745.643881 557.377577 
L 746.684152 555.297034 
L 699.033636 555.297034 
L 699.033636 553.216492 
" style="fill:#0000ff;"/>
    <path clip-path="url(#p14a5874774)" d="M 677.488688 508.919416 
L 719.485848 508.919416 
L 718.445577 506.838873 
L 728.848291 509.959687 
L 718.445577 513.080501 
L 719.485848 510.999959 
L 677.488688 510.999959 
L 677.488688 508.919416 
" style="fill:#0000ff;"/>
    <path clip-path="url(#p14a5874774)" d="M 677.257494 463.017388 
L 719.19399 463.017388 
L 718.153718 460.936845 
L 728.556432 464.057659 
L 718.153718 467.178473 
L 719.19399 465.09793 
L 677.257494 465.09793 
L 677.257494 463.017388 
" style="fill:#0000ff;"/>
    <path clip-path="url(#p14a5874774)" d="M 675.074393 414.923257 
L 716.438047 414.923257 
L 715.397776 412.842714 
L 725.80049 415.963529 
L 715.397776 419.084343 
L 716.438047 417.0038 
L 675.074393 417.0038 
L 675.074393 414.923257 
" style="fill:#0000ff;"/>
    <path clip-path="url(#p14a5874774)" d="M 671.037684 370.032357 
L 711.342113 370.032357 
L 710.301841 367.951814 
L 720.704555 371.072628 
L 710.301841 374.193443 
L 711.342113 372.1129 
L 671.037684 372.1129 
L 671.037684 370.032357 
" style="fill:#0000ff;"/>
    <path clip-path="url(#p14a5874774)" d="M 681.156339 332.18993 
L 724.115885 332.18993 
L 723.075614 330.109387 
L 733.478328 333.230201 
L 723.075614 336.351015 
L 724.115885 334.270473 
L 681.156339 334.270473 
L 681.156339 332.18993 
" style="fill:#0000ff;"/>
    <path clip-path="url(#p14a5874774)" d="M 661.425041 299.582411 
L 699.20713 299.582411 
L 698.166858 297.501868 
L 708.569573 300.622682 
L 698.166858 303.743496 
L 699.20713 301.662953 
L 661.425041 301.662953 
L 661.425041 299.582411 
" style="fill:#0000ff;"/>
    <path clip-path="url(#p14a5874774)" d="M 399.193073 317.282989 
L 386.890853 317.282989 
L 387.931124 319.363532 
L 377.52841 316.242718 
L 387.931124 313.121903 
L 386.890853 315.202446 
L 399.193073 315.202446 
L 399.193073 317.282989 
" style="fill:#0000ff;"/>
    <path clip-path="url(#p14a5874774)" d="M 398.622446 270.119407 
L 386.170494 270.119407 
L 387.210766 272.199949 
L 376.808051 269.079135 
L 387.210766 265.958321 
L 386.170494 268.038864 
L 398.622446 268.038864 
L 398.622446 270.119407 
" style="fill:#0000ff;"/>
    <path clip-path="url(#p14a5874774)" d="M 434.207464 366.11166 
L 431.092957 366.11166 
L 432.133228 368.192203 
L 421.730514 365.071388 
L 432.133228 361.950574 
L 431.092957 364.031117 
L 434.207464 364.031117 
L 434.207464 366.11166 
" style="fill:#0000ff;"/>
    <path clip-path="url(#p14a5874774)" d="M 460.262136 311.39314 
L 459.698111 311.39314 
L 460.262136 312.52119 
L 454.621885 310.829115 
L 460.262136 309.13704 
L 459.698111 310.26509 
L 460.262136 310.26509 
L 460.262136 311.39314 
" style="fill:#0000ff;"/>
    <path clip-path="url(#p14a5874774)" d="M 469.732937 255.901735 
L 469.417424 255.901735 
L 469.732937 256.532761 
L 466.577807 255.586222 
L 469.732937 254.639683 
L 469.417424 255.270709 
L 469.732937 255.270709 
L 469.732937 255.901735 
" style="fill:#0000ff;"/>
   </g>
   <g id="Quiver_2">
    <path clip-path="url(#p14a5874774)" d="M 261.268677 465.053169 
L 261.268677 464.81339 
L 260.789119 465.053169 
L 261.508456 462.655379 
L 262.227793 465.053169 
L 261.748235 464.81339 
L 261.748235 465.053169 
L 261.268677 465.053169 
" style="fill:#008000;"/>
    <path clip-path="url(#p14a5874774)" d="M 277.88945 409.049575 
L 277.88945 401.203668 
L 275.808908 402.24394 
L 278.929722 391.841225 
L 282.050536 402.24394 
L 279.969993 401.203668 
L 279.969993 409.049575 
L 277.88945 409.049575 
" style="fill:#008000;"/>
    <path clip-path="url(#p14a5874774)" d="M 307.087476 386.415289 
L 307.087476 372.583579 
L 305.006934 373.623851 
L 308.127748 363.221136 
L 311.248562 373.623851 
L 309.168019 372.583579 
L 309.168019 386.415289 
L 307.087476 386.415289 
" style="fill:#008000;"/>
    <path clip-path="url(#p14a5874774)" d="M 335.022792 364.117948 
L 335.022792 344.389544 
L 332.942249 345.429815 
L 336.063063 335.027101 
L 339.183878 345.429815 
L 337.103335 344.389544 
L 337.103335 364.117948 
L 335.022792 364.117948 
" style="fill:#008000;"/>
    <path clip-path="url(#p14a5874774)" d="M 361.927587 338.039205 
L 361.927587 311.414086 
L 359.847044 312.454357 
L 362.967858 302.051643 
L 366.088673 312.454357 
L 364.00813 311.414086 
L 364.00813 338.039205 
L 361.927587 338.039205 
" style="fill:#008000;"/>
    <path clip-path="url(#p14a5874774)" d="M 308.314522 543.472714 
L 308.314522 552.451105 
L 310.395065 551.410833 
L 307.27425 561.813547 
L 304.153436 551.410833 
L 306.233979 552.451105 
L 306.233979 543.472714 
L 308.314522 543.472714 
" style="fill:#008000;"/>
    <path clip-path="url(#p14a5874774)" d="M 324.670504 486.204597 
L 324.670504 486.524183 
L 325.309676 486.204597 
L 324.350918 489.400457 
L 323.39216 486.204597 
L 324.031332 486.524183 
L 324.031332 486.204597 
L 324.670504 486.204597 
" style="fill:#008000;"/>
    <path clip-path="url(#p14a5874774)" d="M 360.696136 465.668576 
L 360.696136 465.445072 
L 360.249127 465.668576 
L 360.91964 463.433536 
L 361.590152 465.668576 
L 361.143144 465.445072 
L 361.143144 465.668576 
L 360.696136 465.668576 
" style="fill:#008000;"/>
    <path clip-path="url(#p14a5874774)" d="M 391.575083 436.979119 
L 391.575083 435.996901 
L 389.610647 436.979119 
L 392.5573 427.156941 
L 395.503954 436.979119 
L 393.539518 435.996901 
L 393.539518 436.979119 
L 391.575083 436.979119 
" style="fill:#008000;"/>
    <path clip-path="url(#p14a5874774)" d="M 416.128592 407.455919 
L 416.128592 399.188558 
L 414.04805 400.228829 
L 417.168864 389.826115 
L 420.289678 400.228829 
L 418.209135 399.188558 
L 418.209135 407.455919 
L 416.128592 407.455919 
" style="fill:#008000;"/>
    <path clip-path="url(#p14a5874774)" d="M 373.307981 627.591573 
L 373.307981 658.815811 
L 375.388524 657.775539 
L 372.267709 668.178253 
L 369.146895 657.775539 
L 371.227438 658.815811 
L 371.227438 627.591573 
L 373.307981 627.591573 
" style="fill:#008000;"/>
    <path clip-path="url(#p14a5874774)" d="M 376.130186 557.892906 
L 376.130186 570.684821 
L 378.210729 569.64455 
L 375.089915 580.047264 
L 371.969101 569.64455 
L 374.049644 570.684821 
L 374.049644 557.892906 
L 376.130186 557.892906 
" style="fill:#008000;"/>
    <path clip-path="url(#p14a5874774)" d="M 418.217885 542.649182 
L 418.217885 551.409782 
L 420.298428 550.369511 
L 417.177614 560.772225 
L 414.056799 550.369511 
L 416.137342 551.409782 
L 416.137342 542.649182 
L 418.217885 542.649182 
" style="fill:#008000;"/>
    <path clip-path="url(#p14a5874774)" d="M 462.977408 517.231938 
L 462.977408 519.270763 
L 465.057951 518.230492 
L 461.937136 528.633206 
L 458.816322 518.230492 
L 460.896865 519.270763 
L 460.896865 517.231938 
L 462.977408 517.231938 
" style="fill:#008000;"/>
    <path clip-path="url(#p14a5874774)" d="M 482.511017 482.077323 
L 482.511017 482.28776 
L 482.931891 482.077323 
L 482.30058 484.181695 
L 481.669268 482.077323 
L 482.090143 482.28776 
L 482.090143 482.077323 
L 482.511017 482.077323 
" style="fill:#008000;"/>
    <path clip-path="url(#p14a5874774)" d="M 498.936934 436.832738 
L 498.936934 435.846649 
L 496.964756 436.832738 
L 499.923023 426.971848 
L 502.88129 436.832738 
L 500.909112 435.846649 
L 500.909112 436.832738 
L 498.936934 436.832738 
" style="fill:#008000;"/>
    <path clip-path="url(#p14a5874774)" d="M 504.3077 386.721495 
L 504.3077 372.970763 
L 502.227158 374.011035 
L 505.347972 363.608321 
L 508.468786 374.011035 
L 506.388243 372.970763 
L 506.388243 386.721495 
L 504.3077 386.721495 
" style="fill:#008000;"/>
    <path clip-path="url(#p14a5874774)" d="M 509.590319 346.108793 
L 509.590319 321.617736 
L 507.509776 322.658007 
L 510.630591 312.255293 
L 513.751405 322.658007 
L 511.670862 321.617736 
L 511.670862 346.108793 
L 509.590319 346.108793 
" style="fill:#008000;"/>
    <path clip-path="url(#p14a5874774)" d="M 517.858348 311.464453 
L 517.858348 277.811446 
L 515.777805 278.851717 
L 518.898619 268.449003 
L 522.019434 278.851717 
L 519.938891 277.811446 
L 519.938891 311.464453 
L 517.858348 311.464453 
" style="fill:#008000;"/>
    <path clip-path="url(#p14a5874774)" d="M 525.778797 275.560732 
L 525.778797 232.412723 
L 523.698254 233.452995 
L 526.819068 223.05028 
L 529.939882 233.452995 
L 527.859339 232.412723 
L 527.859339 275.560732 
L 525.778797 275.560732 
" style="fill:#008000;"/>
    <path clip-path="url(#p14a5874774)" d="M 448.962889 685.89668 
L 448.962889 732.54013 
L 451.043432 731.499859 
L 447.922617 741.902573 
L 444.801803 731.499859 
L 446.882346 732.54013 
L 446.882346 685.89668 
L 448.962889 685.89668 
" style="fill:#008000;"/>
    <path clip-path="url(#p14a5874774)" d="M 434.818557 628.816457 
L 434.818557 660.364624 
L 436.8991 659.324353 
L 433.778286 669.727067 
L 430.657471 659.324353 
L 432.738014 660.364624 
L 432.738014 628.816457 
L 434.818557 628.816457 
" style="fill:#008000;"/>
    <path clip-path="url(#p14a5874774)" d="M 482.662587 614.749651 
L 482.662587 642.577748 
L 484.74313 641.537477 
L 481.622316 651.940191 
L 478.501501 641.537477 
L 480.582044 642.577748 
L 480.582044 614.749651 
L 482.662587 614.749651 
" style="fill:#008000;"/>
    <path clip-path="url(#p14a5874774)" d="M 548.357272 601.345431 
L 548.357272 625.628684 
L 550.437815 624.588413 
L 547.317001 634.991127 
L 544.196186 624.588413 
L 546.276729 625.628684 
L 546.276729 601.345431 
L 548.357272 601.345431 
" style="fill:#008000;"/>
    <path clip-path="url(#p14a5874774)" d="M 576.227485 558.783514 
L 576.227485 571.810957 
L 578.308028 570.770686 
L 575.187213 581.1734 
L 572.066399 570.770686 
L 574.146942 571.810957 
L 574.146942 558.783514 
L 576.227485 558.783514 
" style="fill:#008000;"/>
    <path clip-path="url(#p14a5874774)" d="M 583.910245 512.116728 
L 583.910245 513.121579 
L 585.919947 512.116728 
L 582.905394 522.165241 
L 579.89084 512.116728 
L 581.900542 513.121579 
L 581.900542 512.116728 
L 583.910245 512.116728 
" style="fill:#008000;"/>
    <path clip-path="url(#p14a5874774)" d="M 588.532611 471.728279 
L 587.631709 472.248415 
L 587.631709 473.288686 
L 588.532611 473.808822 
L 589.433512 473.288686 
L 589.433512 472.248415 
L 588.532611 471.728279 
L 587.631709 472.248415 
" style="fill:#008000;"/>
    <path clip-path="url(#p14a5874774)" d="M 581.023051 433.926591 
L 581.023051 432.659593 
L 578.942508 433.699864 
L 582.063322 423.29715 
L 585.184136 433.699864 
L 583.103593 432.659593 
L 583.103593 433.926591 
L 581.023051 433.926591 
" style="fill:#008000;"/>
    <path clip-path="url(#p14a5874774)" d="M 576.063064 390.634191 
L 576.063064 377.9182 
L 573.982522 378.958472 
L 577.103336 368.555758 
L 580.22415 378.958472 
L 578.143607 377.9182 
L 578.143607 390.634191 
L 576.063064 390.634191 
" style="fill:#008000;"/>
    <path clip-path="url(#p14a5874774)" d="M 582.719711 355.063359 
L 582.719711 332.940402 
L 580.639168 333.980673 
L 583.759982 323.577959 
L 586.880797 333.980673 
L 584.800254 332.940402 
L 584.800254 355.063359 
L 582.719711 355.063359 
" style="fill:#008000;"/>
    <path clip-path="url(#p14a5874774)" d="M 589.957219 316.637616 
L 589.957219 284.35269 
L 587.876676 285.392962 
L 590.99749 274.990247 
L 594.118305 285.392962 
L 592.037762 284.35269 
L 592.037762 316.637616 
L 589.957219 316.637616 
" style="fill:#008000;"/>
    <path clip-path="url(#p14a5874774)" d="M 598.564681 283.25483 
L 598.564681 242.141582 
L 596.484138 243.181854 
L 599.604953 232.779139 
L 602.725767 243.181854 
L 600.645224 242.141582 
L 600.645224 283.25483 
L 598.564681 283.25483 
" style="fill:#008000;"/>
    <path clip-path="url(#p14a5874774)" d="M 540.526778 692.653778 
L 540.526778 741.084192 
L 542.607321 740.04392 
L 539.486507 750.446635 
L 536.365693 740.04392 
L 538.446236 741.084192 
L 538.446236 692.653778 
L 540.526778 692.653778 
" style="fill:#008000;"/>
    <path clip-path="url(#p14a5874774)" d="M 630.037773 691.845897 
L 630.037773 740.062661 
L 632.118316 739.02239 
L 628.997501 749.425104 
L 625.876687 739.02239 
L 627.95723 740.062661 
L 627.95723 691.845897 
L 630.037773 691.845897 
" style="fill:#008000;"/>
    <path clip-path="url(#p14a5874774)" d="M 692.205346 660.448697 
L 692.205346 700.362241 
L 694.285889 699.32197 
L 691.165075 709.724684 
L 688.04426 699.32197 
L 690.124803 700.362241 
L 690.124803 660.448697 
L 692.205346 660.448697 
" style="fill:#008000;"/>
    <path clip-path="url(#p14a5874774)" d="M 703.046102 610.248761 
L 703.046102 636.886565 
L 705.126644 635.846294 
L 702.00583 646.249008 
L 698.885016 635.846294 
L 700.965559 636.886565 
L 700.965559 610.248761 
L 703.046102 610.248761 
" style="fill:#008000;"/>
    <path clip-path="url(#p14a5874774)" d="M 700.073908 554.256763 
L 700.073908 566.087074 
L 702.15445 565.046802 
L 699.033636 575.449516 
L 695.912822 565.046802 
L 697.993365 566.087074 
L 697.993365 554.256763 
L 700.073908 554.256763 
" style="fill:#008000;"/>
    <path clip-path="url(#p14a5874774)" d="M 678.436494 509.959687 
L 678.436494 510.907494 
L 680.332108 509.959687 
L 677.488688 519.437755 
L 674.645267 509.959687 
L 676.540881 510.907494 
L 676.540881 509.959687 
L 678.436494 509.959687 
" style="fill:#008000;"/>
    <path clip-path="url(#p14a5874774)" d="M 676.991388 464.057659 
L 676.991388 463.791553 
L 676.459176 464.057659 
L 677.257494 461.396599 
L 678.055812 464.057659 
L 677.5236 463.791553 
L 677.5236 464.057659 
L 676.991388 464.057659 
" style="fill:#008000;"/>
    <path clip-path="url(#p14a5874774)" d="M 674.034122 415.963529 
L 674.034122 409.946067 
L 671.953579 410.986338 
L 675.074393 400.583624 
L 678.195208 410.986338 
L 676.114665 409.946067 
L 676.114665 415.963529 
L 674.034122 415.963529 
" style="fill:#008000;"/>
    <path clip-path="url(#p14a5874774)" d="M 669.997412 371.072628 
L 669.997412 353.183439 
L 667.91687 354.223711 
L 671.037684 343.820997 
L 674.158498 354.223711 
L 672.077955 353.183439 
L 672.077955 371.072628 
L 669.997412 371.072628 
" style="fill:#008000;"/>
    <path clip-path="url(#p14a5874774)" d="M 680.116068 333.230201 
L 680.116068 305.333305 
L 678.035525 306.373577 
L 681.156339 295.970863 
L 684.277154 306.373577 
L 682.196611 305.333305 
L 682.196611 333.230201 
L 680.116068 333.230201 
" style="fill:#008000;"/>
    <path clip-path="url(#p14a5874774)" d="M 660.38477 300.622682 
L 660.38477 264.102489 
L 658.304227 265.142761 
L 661.425041 254.740046 
L 664.545855 265.142761 
L 662.465312 264.102489 
L 662.465312 300.622682 
L 660.38477 300.622682 
" style="fill:#008000;"/>
    <path clip-path="url(#p14a5874774)" d="M 398.152801 316.242718 
L 398.152801 283.853358 
L 396.072258 284.893629 
L 399.193073 274.490915 
L 402.313887 284.893629 
L 400.233344 283.853358 
L 400.233344 316.242718 
L 398.152801 316.242718 
" style="fill:#008000;"/>
    <path clip-path="url(#p14a5874774)" d="M 397.582174 269.079135 
L 397.582174 224.21702 
L 395.501631 225.257292 
L 398.622446 214.854578 
L 401.74326 225.257292 
L 399.662717 224.21702 
L 399.662717 269.079135 
L 397.582174 269.079135 
" style="fill:#008000;"/>
    <path clip-path="url(#p14a5874774)" d="M 433.167192 365.071388 
L 433.167192 345.595127 
L 431.08665 346.635399 
L 434.207464 336.232685 
L 437.328278 346.635399 
L 435.247735 345.595127 
L 435.247735 365.071388 
L 433.167192 365.071388 
" style="fill:#008000;"/>
    <path clip-path="url(#p14a5874774)" d="M 459.221864 310.829115 
L 459.221864 277.008088 
L 457.141322 278.048359 
L 460.262136 267.645645 
L 463.38295 278.048359 
L 461.302407 277.008088 
L 461.302407 310.829115 
L 459.221864 310.829115 
" style="fill:#008000;"/>
    <path clip-path="url(#p14a5874774)" d="M 468.692665 255.586222 
L 468.692665 207.155808 
L 466.612123 208.19608 
L 469.732937 197.793365 
L 472.853751 208.19608 
L 470.773208 207.155808 
L 470.773208 255.586222 
L 468.692665 255.586222 
" style="fill:#008000;"/>
   </g>
   <g id="PathCollection_1">
    <defs>
     <path d="M 0 4.1833 
C 1.109424 4.1833 2.173559 3.742521 2.95804 2.95804 
C 3.742521 2.173559 4.1833 1.109424 4.1833 0 
C 4.1833 -1.109424 3.742521 -2.173559 2.95804 -2.95804 
C 2.173559 -3.742521 1.109424 -4.1833 0 -4.1833 
C -1.109424 -4.1833 -2.173559 -3.742521 -2.95804 -2.95804 
C -3.742521 -2.173559 -4.1833 -1.109424 -4.1833 0 
C -4.1833 1.109424 -3.742521 2.173559 -2.95804 2.95804 
C -2.173559 3.742521 -1.109424 4.1833 0 4.1833 
z
" id="m3da51ea9ec" style="stroke:#000000;"/>
    </defs>
    <g clip-path="url(#p14a5874774)">
     <use style="stroke:#000000;" x="261.508456" xlink:href="#m3da51ea9ec" y="465.053169"/>
     <use style="stroke:#000000;" x="278.929722" xlink:href="#m3da51ea9ec" y="409.049575"/>
     <use style="stroke:#000000;" x="308.127748" xlink:href="#m3da51ea9ec" y="386.415289"/>
     <use style="stroke:#000000;" x="336.063063" xlink:href="#m3da51ea9ec" y="364.117948"/>
     <use style="stroke:#000000;" x="362.967858" xlink:href="#m3da51ea9ec" y="338.039205"/>
     <use style="stroke:#000000;" x="307.27425" xlink:href="#m3da51ea9ec" y="543.472714"/>
     <use style="stroke:#000000;" x="324.350918" xlink:href="#m3da51ea9ec" y="486.204597"/>
     <use style="stroke:#000000;" x="360.91964" xlink:href="#m3da51ea9ec" y="465.668576"/>
     <use style="stroke:#000000;" x="392.5573" xlink:href="#m3da51ea9ec" y="436.979119"/>
     <use style="stroke:#000000;" x="417.168864" xlink:href="#m3da51ea9ec" y="407.455919"/>
     <use style="stroke:#000000;" x="372.267709" xlink:href="#m3da51ea9ec" y="627.591573"/>
     <use style="stroke:#000000;" x="375.089915" xlink:href="#m3da51ea9ec" y="557.892906"/>
     <use style="stroke:#000000;" x="417.177614" xlink:href="#m3da51ea9ec" y="542.649182"/>
     <use style="stroke:#000000;" x="461.937136" xlink:href="#m3da51ea9ec" y="517.231938"/>
     <use style="stroke:#000000;" x="482.30058" xlink:href="#m3da51ea9ec" y="482.077323"/>
     <use style="stroke:#000000;" x="499.923023" xlink:href="#m3da51ea9ec" y="436.832738"/>
     <use style="stroke:#000000;" x="505.347972" xlink:href="#m3da51ea9ec" y="386.721495"/>
     <use style="stroke:#000000;" x="510.630591" xlink:href="#m3da51ea9ec" y="346.108793"/>
     <use style="stroke:#000000;" x="518.898619" xlink:href="#m3da51ea9ec" y="311.464453"/>
     <use style="stroke:#000000;" x="526.819068" xlink:href="#m3da51ea9ec" y="275.560732"/>
     <use style="stroke:#000000;" x="447.922617" xlink:href="#m3da51ea9ec" y="685.89668"/>
     <use style="stroke:#000000;" x="433.778286" xlink:href="#m3da51ea9ec" y="628.816457"/>
     <use style="stroke:#000000;" x="481.622316" xlink:href="#m3da51ea9ec" y="614.749651"/>
     <use style="stroke:#000000;" x="547.317001" xlink:href="#m3da51ea9ec" y="601.345431"/>
     <use style="stroke:#000000;" x="575.187213" xlink:href="#m3da51ea9ec" y="558.783514"/>
     <use style="stroke:#000000;" x="582.905394" xlink:href="#m3da51ea9ec" y="512.116728"/>
     <use style="stroke:#000000;" x="588.532611" xlink:href="#m3da51ea9ec" y="472.76855"/>
     <use style="stroke:#000000;" x="582.063322" xlink:href="#m3da51ea9ec" y="433.926591"/>
     <use style="stroke:#000000;" x="577.103336" xlink:href="#m3da51ea9ec" y="390.634191"/>
     <use style="stroke:#000000;" x="583.759982" xlink:href="#m3da51ea9ec" y="355.063359"/>
     <use style="stroke:#000000;" x="590.99749" xlink:href="#m3da51ea9ec" y="316.637616"/>
     <use style="stroke:#000000;" x="599.604953" xlink:href="#m3da51ea9ec" y="283.25483"/>
     <use style="stroke:#000000;" x="539.486507" xlink:href="#m3da51ea9ec" y="692.653778"/>
     <use style="stroke:#000000;" x="628.997501" xlink:href="#m3da51ea9ec" y="691.845897"/>
     <use style="stroke:#000000;" x="691.165075" xlink:href="#m3da51ea9ec" y="660.448697"/>
     <use style="stroke:#000000;" x="702.00583" xlink:href="#m3da51ea9ec" y="610.248761"/>
     <use style="stroke:#000000;" x="699.033636" xlink:href="#m3da51ea9ec" y="554.256763"/>
     <use style="stroke:#000000;" x="677.488688" xlink:href="#m3da51ea9ec" y="509.959687"/>
     <use style="stroke:#000000;" x="677.257494" xlink:href="#m3da51ea9ec" y="464.057659"/>
     <use style="stroke:#000000;" x="675.074393" xlink:href="#m3da51ea9ec" y="415.963529"/>
     <use style="stroke:#000000;" x="671.037684" xlink:href="#m3da51ea9ec" y="371.072628"/>
     <use style="stroke:#000000;" x="681.156339" xlink:href="#m3da51ea9ec" y="333.230201"/>
     <use style="stroke:#000000;" x="661.425041" xlink:href="#m3da51ea9ec" y="300.622682"/>
     <use style="stroke:#000000;" x="399.193073" xlink:href="#m3da51ea9ec" y="316.242718"/>
     <use style="stroke:#000000;" x="398.622446" xlink:href="#m3da51ea9ec" y="269.079135"/>
     <use style="stroke:#000000;" x="434.207464" xlink:href="#m3da51ea9ec" y="365.071388"/>
     <use style="stroke:#000000;" x="460.262136" xlink:href="#m3da51ea9ec" y="310.829115"/>
     <use style="stroke:#000000;" x="469.732937" xlink:href="#m3da51ea9ec" y="255.586222"/>
    </g>
   </g>
   <g id="LineCollection_1">
    <path clip-path="url(#p14a5874774)" d="M 583.861522 650.440797 
L 619.92001 618.164621 
" style="fill:none;stroke:#808080;stroke-opacity:0.05;stroke-width:2;"/>
    <path clip-path="url(#p14a5874774)" d="M 514.286845 549.564261 
L 619.92001 618.164621 
" style="fill:none;stroke:#808080;stroke-opacity:0.05;stroke-width:2;"/>
    <path clip-path="url(#p14a5874774)" d="M 514.286845 549.564261 
L 504.470725 559.446075 
" style="fill:none;stroke:#808080;stroke-opacity:0.05;stroke-width:2;"/>
    <path clip-path="url(#p14a5874774)" d="M 504.470725 559.446075 
L 522.11084 645.188765 
" style="fill:none;stroke:#808080;stroke-opacity:0.05;stroke-width:2;"/>
    <path clip-path="url(#p14a5874774)" d="M 522.11084 645.188765 
L 583.861522 650.440797 
" style="fill:none;stroke:#808080;stroke-opacity:0.05;stroke-width:2;"/>
    <path clip-path="url(#p14a5874774)" d="M 627.581367 397.573591 
L 625.095602 407.109036 
" style="fill:none;stroke:#808080;stroke-opacity:0.05;stroke-width:2;"/>
    <path clip-path="url(#p14a5874774)" d="M 540.328245 416.74077 
L 625.095602 407.109036 
" style="fill:none;stroke:#808080;stroke-opacity:0.05;stroke-width:2;"/>
    <path clip-path="url(#p14a5874774)" d="M 539.736614 415.760521 
L 540.328245 416.74077 
" style="fill:none;stroke:#808080;stroke-opacity:0.05;stroke-width:2;"/>
    <path clip-path="url(#p14a5874774)" d="M 539.736614 415.760521 
L 542.206991 370.829276 
" style="fill:none;stroke:#808080;stroke-opacity:0.05;stroke-width:2;"/>
    <path clip-path="url(#p14a5874774)" d="M 542.206991 370.829276 
L 545.252726 366.319708 
" style="fill:none;stroke:#808080;stroke-opacity:0.05;stroke-width:2;"/>
    <path clip-path="url(#p14a5874774)" d="M 545.252726 366.319708 
L 624.09117 380.951803 
" style="fill:none;stroke:#808080;stroke-opacity:0.05;stroke-width:2;"/>
    <path clip-path="url(#p14a5874774)" d="M 624.09117 380.951803 
L 627.581367 397.573591 
" style="fill:none;stroke:#808080;stroke-opacity:0.05;stroke-width:2;"/>
    <path clip-path="url(#p14a5874774)" d="M 474.031345 362.034523 
L 542.206991 370.829276 
" style="fill:none;stroke:#808080;stroke-opacity:0.05;stroke-width:2;"/>
    <path clip-path="url(#p14a5874774)" d="M 462.137271 400.795487 
L 474.031345 362.034523 
" style="fill:none;stroke:#808080;stroke-opacity:0.05;stroke-width:2;"/>
    <path clip-path="url(#p14a5874774)" d="M 463.751108 407.602248 
L 462.137271 400.795487 
" style="fill:none;stroke:#808080;stroke-opacity:0.05;stroke-width:2;"/>
    <path clip-path="url(#p14a5874774)" d="M 463.751108 407.602248 
L 539.736614 415.760521 
" style="fill:none;stroke:#808080;stroke-opacity:0.05;stroke-width:2;"/>
    <path clip-path="url(#p14a5874774)" d="M 431.228278 330.325043 
L 427.8307 292.313874 
" style="fill:none;stroke:#808080;stroke-opacity:0.05;stroke-width:2;"/>
    <path clip-path="url(#p14a5874774)" d="M 360.441717 293.122489 
L 427.8307 292.313874 
" style="fill:none;stroke:#808080;stroke-opacity:0.05;stroke-width:2;"/>
    <path clip-path="url(#p14a5874774)" d="M 397.545304 354.279654 
L 431.228278 330.325043 
" style="fill:none;stroke:#808080;stroke-opacity:0.05;stroke-width:2;"/>
    <path clip-path="url(#p14a5874774)" d="M 397.545304 354.279654 
L 360.441717 293.122489 
" style="fill:none;stroke:#808080;stroke-opacity:0.05;stroke-width:2;"/>
    <path clip-path="url(#p14a5874774)" d="M 470.816313 349.184044 
L 431.228278 330.325043 
" style="fill:none;stroke:#808080;stroke-opacity:0.05;stroke-width:2;"/>
    <path clip-path="url(#p14a5874774)" d="M 474.031345 362.034523 
L 470.816313 349.184044 
" style="fill:none;stroke:#808080;stroke-opacity:0.05;stroke-width:2;"/>
    <path clip-path="url(#p14a5874774)" d="M 390.652396 372.295302 
L 462.137271 400.795487 
" style="fill:none;stroke:#808080;stroke-opacity:0.05;stroke-width:2;"/>
    <path clip-path="url(#p14a5874774)" d="M 390.652396 372.295302 
L 397.545304 354.279654 
" style="fill:none;stroke:#808080;stroke-opacity:0.05;stroke-width:2;"/>
    <path clip-path="url(#p14a5874774)" d="M 224.988762 223.66594 
L 360.441717 293.122489 
" style="fill:none;stroke:#808080;stroke-opacity:0.05;stroke-width:2;"/>
    <path clip-path="url(#p14a5874774)" d="M 224.988762 223.66594 
L 379.040153 381.287511 
" style="fill:none;stroke:#808080;stroke-opacity:0.05;stroke-width:2;"/>
    <path clip-path="url(#p14a5874774)" d="M 390.652396 372.295302 
L 379.040153 381.287511 
" style="fill:none;stroke:#808080;stroke-opacity:0.05;stroke-width:2;"/>
    <path clip-path="url(#p14a5874774)" d="M 410.699714 488.466475 
L 415.21301 487.423576 
" style="fill:none;stroke:#808080;stroke-opacity:0.05;stroke-width:2;"/>
    <path clip-path="url(#p14a5874774)" d="M 429.502175 475.172144 
L 415.21301 487.423576 
" style="fill:none;stroke:#808080;stroke-opacity:0.05;stroke-width:2;"/>
    <path clip-path="url(#p14a5874774)" d="M 441.137921 452.208335 
L 429.502175 475.172144 
" style="fill:none;stroke:#808080;stroke-opacity:0.05;stroke-width:2;"/>
    <path clip-path="url(#p14a5874774)" d="M 371.741681 394.83386 
L 441.137921 452.208335 
" style="fill:none;stroke:#808080;stroke-opacity:0.05;stroke-width:2;"/>
    <path clip-path="url(#p14a5874774)" d="M 350.802288 410.935833 
L 371.741681 394.83386 
" style="fill:none;stroke:#808080;stroke-opacity:0.05;stroke-width:2;"/>
    <path clip-path="url(#p14a5874774)" d="M 346.430068 418.176249 
L 350.802288 410.935833 
" style="fill:none;stroke:#808080;stroke-opacity:0.05;stroke-width:2;"/>
    <path clip-path="url(#p14a5874774)" d="M 346.430068 418.176249 
L 410.699714 488.466475 
" style="fill:none;stroke:#808080;stroke-opacity:0.05;stroke-width:2;"/>
    <path clip-path="url(#p14a5874774)" d="M 172.517402 189.411192 
L 350.802288 410.935833 
" style="fill:none;stroke:#808080;stroke-opacity:0.05;stroke-width:2;"/>
    <path clip-path="url(#p14a5874774)" d="M 68.520194 109.864896 
L 172.517402 189.411192 
" style="fill:none;stroke:#808080;stroke-opacity:0.05;stroke-width:2;"/>
    <path clip-path="url(#p14a5874774)" d="M 68.520194 109.864896 
L 322.081406 434.261656 
" style="fill:none;stroke:#808080;stroke-opacity:0.05;stroke-width:2;"/>
    <path clip-path="url(#p14a5874774)" d="M 322.081406 434.261656 
L 346.430068 418.176249 
" style="fill:none;stroke:#808080;stroke-opacity:0.05;stroke-width:2;"/>
    <path clip-path="url(#p14a5874774)" d="M 379.040153 381.287511 
L 371.741681 394.83386 
" style="fill:none;stroke:#808080;stroke-opacity:0.05;stroke-width:2;"/>
    <path clip-path="url(#p14a5874774)" d="M 224.988762 223.66594 
L 172.517402 189.411192 
" style="fill:none;stroke:#808080;stroke-opacity:0.05;stroke-width:2;"/>
    <path clip-path="url(#p14a5874774)" d="M 450.769041 443.871275 
L 441.137921 452.208335 
" style="fill:none;stroke:#808080;stroke-opacity:0.05;stroke-width:2;"/>
    <path clip-path="url(#p14a5874774)" d="M 463.751108 407.602248 
L 450.769041 443.871275 
" style="fill:none;stroke:#808080;stroke-opacity:0.05;stroke-width:2;"/>
    <path clip-path="url(#p14a5874774)" d="M 461.389987 568.070814 
L 415.21301 487.423576 
" style="fill:none;stroke:#808080;stroke-opacity:0.05;stroke-width:2;"/>
    <path clip-path="url(#p14a5874774)" d="M 504.470725 559.446075 
L 461.389987 568.070814 
" style="fill:none;stroke:#808080;stroke-opacity:0.05;stroke-width:2;"/>
    <path clip-path="url(#p14a5874774)" d="M 522.123451 528.381332 
L 514.286845 549.564261 
" style="fill:none;stroke:#808080;stroke-opacity:0.05;stroke-width:2;"/>
    <path clip-path="url(#p14a5874774)" d="M 522.123451 528.381332 
L 429.502175 475.172144 
" style="fill:none;stroke:#808080;stroke-opacity:0.05;stroke-width:2;"/>
    <path clip-path="url(#p14a5874774)" d="M 445.858549 581.838718 
L 466.385888 651.081087 
" style="fill:none;stroke:#808080;stroke-opacity:0.05;stroke-width:2;"/>
    <path clip-path="url(#p14a5874774)" d="M 495.527923 664.770855 
L 466.385888 651.081087 
" style="fill:none;stroke:#808080;stroke-opacity:0.05;stroke-width:2;"/>
    <path clip-path="url(#p14a5874774)" d="M 495.527923 664.770855 
L 522.11084 645.188765 
" style="fill:none;stroke:#808080;stroke-opacity:0.05;stroke-width:2;"/>
    <path clip-path="url(#p14a5874774)" d="M 461.389987 568.070814 
L 445.858549 581.838718 
" style="fill:none;stroke:#808080;stroke-opacity:0.05;stroke-width:2;"/>
    <path clip-path="url(#p14a5874774)" d="M 410.15365 588.660818 
L 381.335316 509.749378 
" style="fill:none;stroke:#808080;stroke-opacity:0.05;stroke-width:2;"/>
    <path clip-path="url(#p14a5874774)" d="M 363.334595 512.492403 
L 381.335316 509.749378 
" style="fill:none;stroke:#808080;stroke-opacity:0.05;stroke-width:2;"/>
    <path clip-path="url(#p14a5874774)" d="M 403.710813 593.948262 
L 410.15365 588.660818 
" style="fill:none;stroke:#808080;stroke-opacity:0.05;stroke-width:2;"/>
    <path clip-path="url(#p14a5874774)" d="M 332.51874 591.089336 
L 403.710813 593.948262 
" style="fill:none;stroke:#808080;stroke-opacity:0.05;stroke-width:2;"/>
    <path clip-path="url(#p14a5874774)" d="M 332.51874 591.089336 
L 346.896332 524.031091 
" style="fill:none;stroke:#808080;stroke-opacity:0.05;stroke-width:2;"/>
    <path clip-path="url(#p14a5874774)" d="M 346.896332 524.031091 
L 363.334595 512.492403 
" style="fill:none;stroke:#808080;stroke-opacity:0.05;stroke-width:2;"/>
    <path clip-path="url(#p14a5874774)" d="M 282.923729 505.112393 
L 346.896332 524.031091 
" style="fill:none;stroke:#808080;stroke-opacity:0.05;stroke-width:2;"/>
    <path clip-path="url(#p14a5874774)" d="M 445.858549 581.838718 
L 410.15365 588.660818 
" style="fill:none;stroke:#808080;stroke-opacity:0.05;stroke-width:2;"/>
    <path clip-path="url(#p14a5874774)" d="M 402.247161 666.843551 
L 466.385888 651.081087 
" style="fill:none;stroke:#808080;stroke-opacity:0.05;stroke-width:2;"/>
    <path clip-path="url(#p14a5874774)" d="M 402.247161 666.843551 
L 403.710813 593.948262 
" style="fill:none;stroke:#808080;stroke-opacity:0.05;stroke-width:2;"/>
    <path clip-path="url(#p14a5874774)" d="M 410.699714 488.466475 
L 381.335316 509.749378 
" style="fill:none;stroke:#808080;stroke-opacity:0.05;stroke-width:2;"/>
    <path clip-path="url(#p14a5874774)" d="M 320.402573 436.672742 
L 363.334595 512.492403 
" style="fill:none;stroke:#808080;stroke-opacity:0.05;stroke-width:2;"/>
    <path clip-path="url(#p14a5874774)" d="M 302.628613 447.050071 
L 320.402573 436.672742 
" style="fill:none;stroke:#808080;stroke-opacity:0.05;stroke-width:2;"/>
    <path clip-path="url(#p14a5874774)" d="M 282.923729 505.112393 
L 302.628613 447.050071 
" style="fill:none;stroke:#808080;stroke-opacity:0.05;stroke-width:2;"/>
    <path clip-path="url(#p14a5874774)" d="M 322.081406 434.261656 
L 320.402573 436.672742 
" style="fill:none;stroke:#808080;stroke-opacity:0.05;stroke-width:2;"/>
    <path clip-path="url(#p14a5874774)" d="M 548.88954 336.863594 
L 489.453111 322.79569 
" style="fill:none;stroke:#808080;stroke-opacity:0.05;stroke-width:2;"/>
    <path clip-path="url(#p14a5874774)" d="M 470.816313 349.184044 
L 489.453111 322.79569 
" style="fill:none;stroke:#808080;stroke-opacity:0.05;stroke-width:2;"/>
    <path clip-path="url(#p14a5874774)" d="M 545.252726 366.319708 
L 548.88954 336.863594 
" style="fill:none;stroke:#808080;stroke-opacity:0.05;stroke-width:2;"/>
    <path clip-path="url(#p14a5874774)" d="M 489.453111 322.79569 
L 489.839473 287.431463 
" style="fill:none;stroke:#808080;stroke-opacity:0.05;stroke-width:2;"/>
    <path clip-path="url(#p14a5874774)" d="M 437.269549 278.493169 
L 489.839473 287.431463 
" style="fill:none;stroke:#808080;stroke-opacity:0.05;stroke-width:2;"/>
    <path clip-path="url(#p14a5874774)" d="M 437.269549 278.493169 
L 427.8307 292.313874 
" style="fill:none;stroke:#808080;stroke-opacity:0.05;stroke-width:2;"/>
    <path clip-path="url(#p14a5874774)" d="M 630.661857 445.854278 
L 541.889955 460.517788 
" style="fill:none;stroke:#808080;stroke-opacity:0.05;stroke-width:2;"/>
    <path clip-path="url(#p14a5874774)" d="M 540.328245 416.74077 
L 541.889955 460.517788 
" style="fill:none;stroke:#808080;stroke-opacity:0.05;stroke-width:2;"/>
    <path clip-path="url(#p14a5874774)" d="M 631.890748 442.003786 
L 625.095602 407.109036 
" style="fill:none;stroke:#808080;stroke-opacity:0.05;stroke-width:2;"/>
    <path clip-path="url(#p14a5874774)" d="M 631.890748 442.003786 
L 630.661857 445.854278 
" style="fill:none;stroke:#808080;stroke-opacity:0.05;stroke-width:2;"/>
    <path clip-path="url(#p14a5874774)" d="M 541.889955 460.517788 
L 535.338503 476.539089 
" style="fill:none;stroke:#808080;stroke-opacity:0.05;stroke-width:2;"/>
    <path clip-path="url(#p14a5874774)" d="M 450.769041 443.871275 
L 535.338503 476.539089 
" style="fill:none;stroke:#808080;stroke-opacity:0.05;stroke-width:2;"/>
    <path clip-path="url(#p14a5874774)" d="M 535.338503 476.539089 
L 536.12213 485.408186 
" style="fill:none;stroke:#808080;stroke-opacity:0.05;stroke-width:2;"/>
    <path clip-path="url(#p14a5874774)" d="M 523.785051 526.385811 
L 536.12213 485.408186 
" style="fill:none;stroke:#808080;stroke-opacity:0.05;stroke-width:2;"/>
    <path clip-path="url(#p14a5874774)" d="M 522.123451 528.381332 
L 523.785051 526.385811 
" style="fill:none;stroke:#808080;stroke-opacity:0.05;stroke-width:2;"/>
    <path clip-path="url(#p14a5874774)" d="M 634.756981 487.221548 
L 629.913571 498.71087 
" style="fill:none;stroke:#808080;stroke-opacity:0.05;stroke-width:2;"/>
    <path clip-path="url(#p14a5874774)" d="M 630.954184 543.964389 
L 629.913571 498.71087 
" style="fill:none;stroke:#808080;stroke-opacity:0.05;stroke-width:2;"/>
    <path clip-path="url(#p14a5874774)" d="M 637.119894 556.777075 
L 630.954184 543.964389 
" style="fill:none;stroke:#808080;stroke-opacity:0.05;stroke-width:2;"/>
    <path clip-path="url(#p14a5874774)" d="M 782.849818 486.481798 
L 637.119894 556.777075 
" style="fill:none;stroke:#808080;stroke-opacity:0.05;stroke-width:2;"/>
    <path clip-path="url(#p14a5874774)" d="M 782.849818 486.481798 
L 634.756981 487.221548 
" style="fill:none;stroke:#808080;stroke-opacity:0.05;stroke-width:2;"/>
    <path clip-path="url(#p14a5874774)" d="M 523.785051 526.385811 
L 630.954184 543.964389 
" style="fill:none;stroke:#808080;stroke-opacity:0.05;stroke-width:2;"/>
    <path clip-path="url(#p14a5874774)" d="M 625.791515 615.809753 
L 619.92001 618.164621 
" style="fill:none;stroke:#808080;stroke-opacity:0.05;stroke-width:2;"/>
    <path clip-path="url(#p14a5874774)" d="M 625.791515 615.809753 
L 638.179754 585.534658 
" style="fill:none;stroke:#808080;stroke-opacity:0.05;stroke-width:2;"/>
    <path clip-path="url(#p14a5874774)" d="M 638.179754 585.534658 
L 637.119894 556.777075 
" style="fill:none;stroke:#808080;stroke-opacity:0.05;stroke-width:2;"/>
    <path clip-path="url(#p14a5874774)" d="M 536.12213 485.408186 
L 629.913571 498.71087 
" style="fill:none;stroke:#808080;stroke-opacity:0.05;stroke-width:2;"/>
    <path clip-path="url(#p14a5874774)" d="M 630.661857 445.854278 
L 634.756981 487.221548 
" style="fill:none;stroke:#808080;stroke-opacity:0.05;stroke-width:2;"/>
    <path clip-path="url(#p14a5874774)" d="M 633.140156 340.759852 
L 633.336062 339.70413 
" style="fill:none;stroke:#808080;stroke-opacity:0.05;stroke-width:2;"/>
    <path clip-path="url(#p14a5874774)" d="M 626.021357 307.801883 
L 633.336062 339.70413 
" style="fill:none;stroke:#808080;stroke-opacity:0.05;stroke-width:2;"/>
    <path clip-path="url(#p14a5874774)" d="M 626.021357 307.801883 
L 561.932386 291.413246 
" style="fill:none;stroke:#808080;stroke-opacity:0.05;stroke-width:2;"/>
    <path clip-path="url(#p14a5874774)" d="M 561.932386 291.413246 
L 555.91079 300.743859 
" style="fill:none;stroke:#808080;stroke-opacity:0.05;stroke-width:2;"/>
    <path clip-path="url(#p14a5874774)" d="M 553.824394 329.582581 
L 555.91079 300.743859 
" style="fill:none;stroke:#808080;stroke-opacity:0.05;stroke-width:2;"/>
    <path clip-path="url(#p14a5874774)" d="M 553.824394 329.582581 
L 630.928202 343.98547 
" style="fill:none;stroke:#808080;stroke-opacity:0.05;stroke-width:2;"/>
    <path clip-path="url(#p14a5874774)" d="M 630.928202 343.98547 
L 633.140156 340.759852 
" style="fill:none;stroke:#808080;stroke-opacity:0.05;stroke-width:2;"/>
    <path clip-path="url(#p14a5874774)" d="M 490.886753 286.517582 
L 555.91079 300.743859 
" style="fill:none;stroke:#808080;stroke-opacity:0.05;stroke-width:2;"/>
    <path clip-path="url(#p14a5874774)" d="M 489.839473 287.431463 
L 490.886753 286.517582 
" style="fill:none;stroke:#808080;stroke-opacity:0.05;stroke-width:2;"/>
    <path clip-path="url(#p14a5874774)" d="M 548.88954 336.863594 
L 553.824394 329.582581 
" style="fill:none;stroke:#808080;stroke-opacity:0.05;stroke-width:2;"/>
    <path clip-path="url(#p14a5874774)" d="M 624.09117 380.951803 
L 630.928202 343.98547 
" style="fill:none;stroke:#808080;stroke-opacity:0.05;stroke-width:2;"/>
    <path clip-path="url(#p14a5874774)" d="M 593.099788 -1 
L 561.932386 291.413246 
" style="fill:none;stroke:#808080;stroke-opacity:0.05;stroke-width:2;"/>
    <path clip-path="url(#p14a5874774)" d="M 592.325278 -1 
L 490.886753 286.517582 
" style="fill:none;stroke:#808080;stroke-opacity:0.05;stroke-width:2;"/>
    <path clip-path="url(#p14a5874774)" d="M 792.065362 382.904614 
L 633.140156 340.759852 
" style="fill:none;stroke:#808080;stroke-opacity:0.05;stroke-width:2;"/>
    <path clip-path="url(#p14a5874774)" d="M 792.065362 382.904614 
L 627.581367 397.573591 
" style="fill:none;stroke:#808080;stroke-opacity:0.05;stroke-width:2;"/>
    <path clip-path="url(#p14a5874774)" d="M 1081 463.365782 
L 1019.185564 614.102043 
" style="fill:none;stroke:#808080;stroke-opacity:0.05;stroke-width:2;"/>
    <path clip-path="url(#p14a5874774)" d="M 1019.185564 614.102043 
L 1081 604.610679 
" style="fill:none;stroke:#808080;stroke-opacity:0.05;stroke-width:2;"/>
    <path clip-path="url(#p14a5874774)" d="M 633.336062 339.70413 
L 1081 71.047838 
" style="fill:none;stroke:#808080;stroke-opacity:0.05;stroke-width:2;"/>
    <path clip-path="url(#p14a5874774)" style="fill:none;stroke:#808080;stroke-opacity:0.05;stroke-width:2;"/>
    <path clip-path="url(#p14a5874774)" d="M 1081 145.168002 
L 1008.35749 243.123075 
" style="fill:none;stroke:#808080;stroke-opacity:0.05;stroke-width:2;"/>
    <path clip-path="url(#p14a5874774)" d="M 1019.185564 614.102043 
L 1007.205079 621.795017 
" style="fill:none;stroke:#808080;stroke-opacity:0.05;stroke-width:2;"/>
    <path clip-path="url(#p14a5874774)" d="M 1007.205079 621.795017 
L 1008.35749 243.123075 
" style="fill:none;stroke:#808080;stroke-opacity:0.05;stroke-width:2;"/>
    <path clip-path="url(#p14a5874774)" d="M 1081 641.630896 
L 981.110558 655.938792 
" style="fill:none;stroke:#808080;stroke-opacity:0.05;stroke-width:2;"/>
    <path clip-path="url(#p14a5874774)" style="fill:none;stroke:#808080;stroke-opacity:0.05;stroke-width:2;"/>
    <path clip-path="url(#p14a5874774)" d="M 1007.205079 621.795017 
L 985.716475 645.219401 
" style="fill:none;stroke:#808080;stroke-opacity:0.05;stroke-width:2;"/>
    <path clip-path="url(#p14a5874774)" d="M 981.110558 655.938792 
L 985.716475 645.219401 
" style="fill:none;stroke:#808080;stroke-opacity:0.05;stroke-width:2;"/>
    <path clip-path="url(#p14a5874774)" d="M 1008.35749 243.123075 
L 932.9124 338.364526 
" style="fill:none;stroke:#808080;stroke-opacity:0.05;stroke-width:2;"/>
    <path clip-path="url(#p14a5874774)" d="M 985.716475 645.219401 
L 932.9124 338.364526 
" style="fill:none;stroke:#808080;stroke-opacity:0.05;stroke-width:2;"/>
    <path clip-path="url(#p14a5874774)" d="M 792.065362 382.904614 
L 880.233817 389.33271 
" style="fill:none;stroke:#808080;stroke-opacity:0.05;stroke-width:2;"/>
    <path clip-path="url(#p14a5874774)" d="M 932.9124 338.364526 
L 923.883553 347.946367 
" style="fill:none;stroke:#808080;stroke-opacity:0.05;stroke-width:2;"/>
    <path clip-path="url(#p14a5874774)" d="M 880.233817 389.33271 
L 923.883553 347.946367 
" style="fill:none;stroke:#808080;stroke-opacity:0.05;stroke-width:2;"/>
    <path clip-path="url(#p14a5874774)" d="M 631.890748 442.003786 
L 845.937347 432.367781 
" style="fill:none;stroke:#808080;stroke-opacity:0.05;stroke-width:2;"/>
    <path clip-path="url(#p14a5874774)" d="M 782.849818 486.481798 
L 818.003997 478.064694 
" style="fill:none;stroke:#808080;stroke-opacity:0.05;stroke-width:2;"/>
    <path clip-path="url(#p14a5874774)" d="M 818.003997 478.064694 
L 845.937347 432.367781 
" style="fill:none;stroke:#808080;stroke-opacity:0.05;stroke-width:2;"/>
    <path clip-path="url(#p14a5874774)" d="M 880.233817 389.33271 
L 873.509613 398.970164 
" style="fill:none;stroke:#808080;stroke-opacity:0.05;stroke-width:2;"/>
    <path clip-path="url(#p14a5874774)" d="M 845.937347 432.367781 
L 873.509613 398.970164 
" style="fill:none;stroke:#808080;stroke-opacity:0.05;stroke-width:2;"/>
    <path clip-path="url(#p14a5874774)" d="M 638.179754 585.534658 
L 784.045931 577.855515 
" style="fill:none;stroke:#808080;stroke-opacity:0.05;stroke-width:2;"/>
    <path clip-path="url(#p14a5874774)" d="M 818.003997 478.064694 
L 814.722559 493.301002 
" style="fill:none;stroke:#808080;stroke-opacity:0.05;stroke-width:2;"/>
    <path clip-path="url(#p14a5874774)" d="M 784.045931 577.855515 
L 814.722559 493.301002 
" style="fill:none;stroke:#808080;stroke-opacity:0.05;stroke-width:2;"/>
    <path clip-path="url(#p14a5874774)" d="M 784.045931 577.855515 
L 783.819945 588.058562 
" style="fill:none;stroke:#808080;stroke-opacity:0.05;stroke-width:2;"/>
    <path clip-path="url(#p14a5874774)" d="M 814.722559 493.301002 
L 911.2199 658.766192 
" style="fill:none;stroke:#808080;stroke-opacity:0.05;stroke-width:2;"/>
    <path clip-path="url(#p14a5874774)" d="M 783.819945 588.058562 
L 911.2199 658.766192 
" style="fill:none;stroke:#808080;stroke-opacity:0.05;stroke-width:2;"/>
    <path clip-path="url(#p14a5874774)" d="M 873.509613 398.970164 
L 926.515269 673.961118 
" style="fill:none;stroke:#808080;stroke-opacity:0.05;stroke-width:2;"/>
    <path clip-path="url(#p14a5874774)" d="M 926.515269 673.961118 
L 911.2199 658.766192 
" style="fill:none;stroke:#808080;stroke-opacity:0.05;stroke-width:2;"/>
    <path clip-path="url(#p14a5874774)" d="M 632.293136 621.579093 
L 625.791515 615.809753 
" style="fill:none;stroke:#808080;stroke-opacity:0.05;stroke-width:2;"/>
    <path clip-path="url(#p14a5874774)" d="M 632.293136 621.579093 
L 765.173797 650.038455 
" style="fill:none;stroke:#808080;stroke-opacity:0.05;stroke-width:2;"/>
    <path clip-path="url(#p14a5874774)" d="M 783.819945 588.058562 
L 776.293194 621.503144 
" style="fill:none;stroke:#808080;stroke-opacity:0.05;stroke-width:2;"/>
    <path clip-path="url(#p14a5874774)" d="M 765.173797 650.038455 
L 776.293194 621.503144 
" style="fill:none;stroke:#808080;stroke-opacity:0.05;stroke-width:2;"/>
    <path clip-path="url(#p14a5874774)" d="M 765.173797 650.038455 
L 764.967495 661.43671 
" style="fill:none;stroke:#808080;stroke-opacity:0.05;stroke-width:2;"/>
    <path clip-path="url(#p14a5874774)" d="M 776.293194 621.503144 
L 902.513872 680.631588 
" style="fill:none;stroke:#808080;stroke-opacity:0.05;stroke-width:2;"/>
    <path clip-path="url(#p14a5874774)" d="M 764.967495 661.43671 
L 902.513872 680.631588 
" style="fill:none;stroke:#808080;stroke-opacity:0.05;stroke-width:2;"/>
    <path clip-path="url(#p14a5874774)" d="M 764.967495 661.43671 
L 761.342554 688.085941 
" style="fill:none;stroke:#808080;stroke-opacity:0.05;stroke-width:2;"/>
    <path clip-path="url(#p14a5874774)" d="M 902.513872 680.631588 
L 920.686293 686.418178 
" style="fill:none;stroke:#808080;stroke-opacity:0.05;stroke-width:2;"/>
    <path clip-path="url(#p14a5874774)" d="M 761.342554 688.085941 
L 920.686293 686.418178 
" style="fill:none;stroke:#808080;stroke-opacity:0.05;stroke-width:2;"/>
    <path clip-path="url(#p14a5874774)" d="M 632.293136 621.579093 
L 720.695961 795.177659 
" style="fill:none;stroke:#808080;stroke-opacity:0.05;stroke-width:2;"/>
    <path clip-path="url(#p14a5874774)" d="M 761.342554 688.085941 
L 755.935472 710.936731 
" style="fill:none;stroke:#808080;stroke-opacity:0.05;stroke-width:2;"/>
    <path clip-path="url(#p14a5874774)" d="M 755.935472 710.936731 
L 751.526877 724.24681 
" style="fill:none;stroke:#808080;stroke-opacity:0.05;stroke-width:2;"/>
    <path clip-path="url(#p14a5874774)" d="M 751.526877 724.24681 
L 722.341142 792.229338 
" style="fill:none;stroke:#808080;stroke-opacity:0.05;stroke-width:2;"/>
    <path clip-path="url(#p14a5874774)" d="M 720.695961 795.177659 
L 722.341142 792.229338 
" style="fill:none;stroke:#808080;stroke-opacity:0.05;stroke-width:2;"/>
    <path clip-path="url(#p14a5874774)" d="M 751.526877 724.24681 
L 862.683753 713.97843 
" style="fill:none;stroke:#808080;stroke-opacity:0.05;stroke-width:2;"/>
    <path clip-path="url(#p14a5874774)" d="M 862.683753 713.97843 
L 817.827399 748.82675 
" style="fill:none;stroke:#808080;stroke-opacity:0.05;stroke-width:2;"/>
    <path clip-path="url(#p14a5874774)" d="M 722.341142 792.229338 
L 817.827399 748.82675 
" style="fill:none;stroke:#808080;stroke-opacity:0.05;stroke-width:2;"/>
    <path clip-path="url(#p14a5874774)" d="M 583.861522 650.440797 
L 587.779813 1081 
" style="fill:none;stroke:#808080;stroke-opacity:0.05;stroke-width:2;"/>
    <path clip-path="url(#p14a5874774)" d="M 720.695961 795.177659 
L 690.119955 913.058949 
" style="fill:none;stroke:#808080;stroke-opacity:0.05;stroke-width:2;"/>
    <path clip-path="url(#p14a5874774)" d="M 635.353672 1081 
L 690.119955 913.058949 
" style="fill:none;stroke:#808080;stroke-opacity:0.05;stroke-width:2;"/>
    <path clip-path="url(#p14a5874774)" d="M 495.527923 664.770855 
L 464.556478 1081 
" style="fill:none;stroke:#808080;stroke-opacity:0.05;stroke-width:2;"/>
    <path clip-path="url(#p14a5874774)" style="fill:none;stroke:#808080;stroke-opacity:0.05;stroke-width:2;"/>
    <path clip-path="url(#p14a5874774)" d="M 690.119955 913.058949 
L 887.65783 735.057558 
" style="fill:none;stroke:#808080;stroke-opacity:0.05;stroke-width:2;"/>
    <path clip-path="url(#p14a5874774)" d="M 817.827399 748.82675 
L 889.317031 732.223587 
" style="fill:none;stroke:#808080;stroke-opacity:0.05;stroke-width:2;"/>
    <path clip-path="url(#p14a5874774)" d="M 889.317031 732.223587 
L 887.65783 735.057558 
" style="fill:none;stroke:#808080;stroke-opacity:0.05;stroke-width:2;"/>
    <path clip-path="url(#p14a5874774)" d="M 862.683753 713.97843 
L 915.44317 694.290149 
" style="fill:none;stroke:#808080;stroke-opacity:0.05;stroke-width:2;"/>
    <path clip-path="url(#p14a5874774)" d="M 889.317031 732.223587 
L 906.401236 712.613695 
" style="fill:none;stroke:#808080;stroke-opacity:0.05;stroke-width:2;"/>
    <path clip-path="url(#p14a5874774)" d="M 906.401236 712.613695 
L 911.666066 703.880001 
" style="fill:none;stroke:#808080;stroke-opacity:0.05;stroke-width:2;"/>
    <path clip-path="url(#p14a5874774)" d="M 915.44317 694.290149 
L 911.666066 703.880001 
" style="fill:none;stroke:#808080;stroke-opacity:0.05;stroke-width:2;"/>
    <path clip-path="url(#p14a5874774)" d="M 755.935472 710.936731 
L 916.463579 692.620736 
" style="fill:none;stroke:#808080;stroke-opacity:0.05;stroke-width:2;"/>
    <path clip-path="url(#p14a5874774)" d="M 915.44317 694.290149 
L 916.463579 692.620736 
" style="fill:none;stroke:#808080;stroke-opacity:0.05;stroke-width:2;"/>
    <path clip-path="url(#p14a5874774)" d="M 920.686293 686.418178 
L 921.012317 686.491848 
" style="fill:none;stroke:#808080;stroke-opacity:0.05;stroke-width:2;"/>
    <path clip-path="url(#p14a5874774)" d="M 916.463579 692.620736 
L 921.012317 686.491848 
" style="fill:none;stroke:#808080;stroke-opacity:0.05;stroke-width:2;"/>
    <path clip-path="url(#p14a5874774)" d="M 926.515269 673.961118 
L 930.489817 679.816864 
" style="fill:none;stroke:#808080;stroke-opacity:0.05;stroke-width:2;"/>
    <path clip-path="url(#p14a5874774)" d="M 921.012317 686.491848 
L 930.489817 679.816864 
" style="fill:none;stroke:#808080;stroke-opacity:0.05;stroke-width:2;"/>
    <path clip-path="url(#p14a5874774)" d="M 923.883553 347.946367 
L 946.520326 678.812275 
" style="fill:none;stroke:#808080;stroke-opacity:0.05;stroke-width:2;"/>
    <path clip-path="url(#p14a5874774)" d="M 930.489817 679.816864 
L 946.520326 678.812275 
" style="fill:none;stroke:#808080;stroke-opacity:0.05;stroke-width:2;"/>
    <path clip-path="url(#p14a5874774)" d="M 916.63528 726.524662 
L 941.99353 806.121651 
" style="fill:none;stroke:#808080;stroke-opacity:0.05;stroke-width:2;"/>
    <path clip-path="url(#p14a5874774)" d="M 916.63528 726.524662 
L 932.745065 994.856718 
" style="fill:none;stroke:#808080;stroke-opacity:0.05;stroke-width:2;"/>
    <path clip-path="url(#p14a5874774)" d="M 941.99353 806.121651 
L 932.745065 994.856718 
" style="fill:none;stroke:#808080;stroke-opacity:0.05;stroke-width:2;"/>
    <path clip-path="url(#p14a5874774)" d="M 911.666066 703.880001 
L 916.63528 726.524662 
" style="fill:none;stroke:#808080;stroke-opacity:0.05;stroke-width:2;"/>
    <path clip-path="url(#p14a5874774)" d="M 941.99353 806.121651 
L 967.119804 708.076795 
" style="fill:none;stroke:#808080;stroke-opacity:0.05;stroke-width:2;"/>
    <path clip-path="url(#p14a5874774)" d="M 964.875987 677.444514 
L 959.577933 679.955919 
" style="fill:none;stroke:#808080;stroke-opacity:0.05;stroke-width:2;"/>
    <path clip-path="url(#p14a5874774)" d="M 964.875987 677.444514 
L 999.029186 688.744071 
" style="fill:none;stroke:#808080;stroke-opacity:0.05;stroke-width:2;"/>
    <path clip-path="url(#p14a5874774)" d="M 959.577933 679.955919 
L 967.414644 705.501521 
" style="fill:none;stroke:#808080;stroke-opacity:0.05;stroke-width:2;"/>
    <path clip-path="url(#p14a5874774)" d="M 967.414644 705.501521 
L 987.053348 733.320924 
" style="fill:none;stroke:#808080;stroke-opacity:0.05;stroke-width:2;"/>
    <path clip-path="url(#p14a5874774)" d="M 999.029186 688.744071 
L 1025.229891 703.889815 
" style="fill:none;stroke:#808080;stroke-opacity:0.05;stroke-width:2;"/>
    <path clip-path="url(#p14a5874774)" d="M 987.053348 733.320924 
L 1081 813.694415 
" style="fill:none;stroke:#808080;stroke-opacity:0.05;stroke-width:2;"/>
    <path clip-path="url(#p14a5874774)" d="M 1025.229891 703.889815 
L 1081 800.177601 
" style="fill:none;stroke:#808080;stroke-opacity:0.05;stroke-width:2;"/>
    <path clip-path="url(#p14a5874774)" d="M 981.110558 655.938792 
L 964.875987 677.444514 
" style="fill:none;stroke:#808080;stroke-opacity:0.05;stroke-width:2;"/>
    <path clip-path="url(#p14a5874774)" d="M 946.520326 678.812275 
L 959.577933 679.955919 
" style="fill:none;stroke:#808080;stroke-opacity:0.05;stroke-width:2;"/>
    <path clip-path="url(#p14a5874774)" d="M 1081 669.242273 
L 999.029186 688.744071 
" style="fill:none;stroke:#808080;stroke-opacity:0.05;stroke-width:2;"/>
    <path clip-path="url(#p14a5874774)" d="M 967.119804 708.076795 
L 967.414644 705.501521 
" style="fill:none;stroke:#808080;stroke-opacity:0.05;stroke-width:2;"/>
   </g>
   <g id="LineCollection_2">
    <path clip-path="url(#p14a5874774)" d="M 282.923729 505.112393 
L -1 669.445619 
" style="fill:none;stroke:#808080;stroke-dasharray:7.4,3.2;stroke-dashoffset:0;stroke-opacity:0.05;stroke-width:2;"/>
    <path clip-path="url(#p14a5874774)" d="M 332.51874 591.089336 
L -1 846.6556 
" style="fill:none;stroke:#808080;stroke-dasharray:7.4,3.2;stroke-dashoffset:0;stroke-opacity:0.05;stroke-width:2;"/>
    <path clip-path="url(#p14a5874774)" style="fill:none;stroke:#808080;stroke-dasharray:7.4,3.2;stroke-dashoffset:0;stroke-opacity:0.05;stroke-width:2;"/>
    <path clip-path="url(#p14a5874774)" d="M 626.021357 307.801883 
L 713.497458 -1 
" style="fill:none;stroke:#808080;stroke-dasharray:7.4,3.2;stroke-dashoffset:0;stroke-opacity:0.05;stroke-width:2;"/>
    <path clip-path="url(#p14a5874774)" d="M 68.520194 109.864896 
L -1 50.905992 
" style="fill:none;stroke:#808080;stroke-dasharray:7.4,3.2;stroke-dashoffset:0;stroke-opacity:0.05;stroke-width:2;"/>
    <path clip-path="url(#p14a5874774)" d="M 302.628613 447.050071 
L -1 353.377268 
" style="fill:none;stroke:#808080;stroke-dasharray:7.4,3.2;stroke-dashoffset:0;stroke-opacity:0.05;stroke-width:2;"/>
    <path clip-path="url(#p14a5874774)" style="fill:none;stroke:#808080;stroke-dasharray:7.4,3.2;stroke-dashoffset:0;stroke-opacity:0.05;stroke-width:2;"/>
    <path clip-path="url(#p14a5874774)" style="fill:none;stroke:#808080;stroke-dasharray:7.4,3.2;stroke-dashoffset:0;stroke-opacity:0.05;stroke-width:2;"/>
    <path clip-path="url(#p14a5874774)" d="M 437.269549 278.493169 
L 383.796343 -1 
" style="fill:none;stroke:#808080;stroke-dasharray:7.4,3.2;stroke-dashoffset:0;stroke-opacity:0.05;stroke-width:2;"/>
    <path clip-path="url(#p14a5874774)" style="fill:none;stroke:#808080;stroke-dasharray:7.4,3.2;stroke-dashoffset:0;stroke-opacity:0.05;stroke-width:2;"/>
    <path clip-path="url(#p14a5874774)" d="M 887.65783 735.057558 
L 832.033764 1081 
" style="fill:none;stroke:#808080;stroke-dasharray:7.4,3.2;stroke-dashoffset:0;stroke-opacity:0.05;stroke-width:2;"/>
    <path clip-path="url(#p14a5874774)" d="M 906.401236 712.613695 
L 893.56206 1081 
" style="fill:none;stroke:#808080;stroke-dasharray:7.4,3.2;stroke-dashoffset:0;stroke-opacity:0.05;stroke-width:2;"/>
    <path clip-path="url(#p14a5874774)" d="M 932.745065 994.856718 
L 930.244352 1081 
" style="fill:none;stroke:#808080;stroke-dasharray:7.4,3.2;stroke-dashoffset:0;stroke-opacity:0.05;stroke-width:2;"/>
    <path clip-path="url(#p14a5874774)" d="M 967.119804 708.076795 
L 996.490694 1081 
" style="fill:none;stroke:#808080;stroke-dasharray:7.4,3.2;stroke-dashoffset:0;stroke-opacity:0.05;stroke-width:2;"/>
    <path clip-path="url(#p14a5874774)" d="M 402.247161 666.843551 
L 80.41687 1081 
" style="fill:none;stroke:#808080;stroke-dasharray:7.4,3.2;stroke-dashoffset:0;stroke-opacity:0.05;stroke-width:2;"/>
    <path clip-path="url(#p14a5874774)" d="M 987.053348 733.320924 
L 1027.871752 1081 
" style="fill:none;stroke:#808080;stroke-dasharray:7.4,3.2;stroke-dashoffset:0;stroke-opacity:0.05;stroke-width:2;"/>
    <path clip-path="url(#p14a5874774)" d="M 1025.229891 703.889815 
L 1081 707.417747 
" style="fill:none;stroke:#808080;stroke-dasharray:7.4,3.2;stroke-dashoffset:0;stroke-opacity:0.05;stroke-width:2;"/>
    <path clip-path="url(#p14a5874774)" style="fill:none;stroke:#808080;stroke-dasharray:7.4,3.2;stroke-dashoffset:0;stroke-opacity:0.05;stroke-width:2;"/>
   </g>
   <g id="line2d_1">
    <path clip-path="url(#p14a5874774)" d="M 683.760775 717.400953 
L 608.549263 730.579545 
L 560.663713 724.566781 
L 477.508819 721.122141 
L 430.060347 716.701386 
L 348.944432 651.388569 
L 285.149316 567.845564 
L 235.426953 485.673262 
L 218.725811 430.497006 
L 238.728828 384.2998 
L 284.977472 346.455152 
L 307.949267 330.129967 
L 344.309277 300.023867 
L 372.985587 266.850884 
L 404.249298 243.213224 
L 470.615287 228.977719 
L 532.521962 255.104788 
L 599.702331 262.799076 
L 681.949119 281.820321 
L 712.512779 306.059217 
L 711.894214 379.469717 
L 720.34583 423.212964 
L 728.801519 466.955124 
L 734.491612 513.139556 
L 750.501161 553.170424 
L 770.522597 614.277852 
L 755.827206 686.318737 
L 683.760775 717.400953 
" style="fill:none;stroke:#808080;stroke-dasharray:7.4,3.2;stroke-dashoffset:0;stroke-width:2;"/>
   </g>
   <g id="line2d_2">
    <path clip-path="url(#p14a5874774)" d="M 1032.75677 740.609127 
L 935.207797 599.536142 
" style="fill:none;stroke:#808080;stroke-dasharray:12.8,3.2,2,3.2;stroke-dashoffset:0;stroke-width:2;"/>
   </g>
   <g id="text_1">
    <!-- $\alpha$ -->
    <defs>
     <path d="M 40.921875 25.4375 
L 40.96875 36.71875 
Q 41.015625 48.25 32.328125 48.296875 
Q 25.828125 48.34375 21.78125 42.921875 
Q 16.703125 36.234375 14.984375 27.296875 
Q 12.890625 16.546875 15.53125 11.421875 
Q 18.265625 6.203125 24.171875 6.203125 
Q 30.71875 6.203125 36.234375 16.609375 
z
M 33.84375 55.90625 
Q 49.078125 56.15625 48.875 40.375 
Q 48.875 40.375 56.5 54.6875 
L 64.5 54.6875 
L 48.734375 25.046875 
L 48.578125 14.359375 
Q 48.578125 11.96875 49.90625 9.96875 
Q 51.421875 7.625 52.984375 7.625 
L 57.328125 7.625 
L 55.859375 0 
L 50.4375 0 
Q 45.84375 0 42.53125 4.109375 
Q 40.96875 6.15625 40.921875 10.453125 
Q 37.75 5.21875 32.28125 0.78125 
Q 29.6875 -1.265625 22.703125 -1.21875 
Q 11.28125 -1.125 7.125 6.203125 
Q 2.875 13.8125 5.515625 27.296875 
Q 8.34375 41.796875 15.765625 48.390625 
Q 24.125 55.765625 33.84375 55.90625 
z
" id="DejaVuSans-Oblique-945"/>
    </defs>
    <g transform="translate(274.159301 471.35248)scale(0.24 -0.24)">
     <use transform="translate(0 0.84375)" xlink:href="#DejaVuSans-Oblique-945"/>
    </g>
   </g>
   <g id="text_2">
    <!-- A1 -->
    <defs>
     <path d="M 34.1875 63.1875 
L 20.796875 26.90625 
L 47.609375 26.90625 
z
M 28.609375 72.90625 
L 39.796875 72.90625 
L 67.578125 0 
L 57.328125 0 
L 50.6875 18.703125 
L 17.828125 18.703125 
L 11.1875 0 
L 0.78125 0 
z
" id="DejaVuSans-65"/>
     <path d="M 12.40625 8.296875 
L 28.515625 8.296875 
L 28.515625 63.921875 
L 10.984375 60.40625 
L 10.984375 69.390625 
L 28.421875 72.90625 
L 38.28125 72.90625 
L 38.28125 8.296875 
L 54.390625 8.296875 
L 54.390625 0 
L 12.40625 0 
z
" id="DejaVuSans-49"/>
    </defs>
    <g transform="translate(291.580567 415.348886)scale(0.24 -0.24)">
     <use xlink:href="#DejaVuSans-65"/>
     <use x="68.408203" xlink:href="#DejaVuSans-49"/>
    </g>
   </g>
   <g id="text_3">
    <!-- A2 -->
    <defs>
     <path d="M 19.1875 8.296875 
L 53.609375 8.296875 
L 53.609375 0 
L 7.328125 0 
L 7.328125 8.296875 
Q 12.9375 14.109375 22.625 23.890625 
Q 32.328125 33.6875 34.8125 36.53125 
Q 39.546875 41.84375 41.421875 45.53125 
Q 43.3125 49.21875 43.3125 52.78125 
Q 43.3125 58.59375 39.234375 62.25 
Q 35.15625 65.921875 28.609375 65.921875 
Q 23.96875 65.921875 18.8125 64.3125 
Q 13.671875 62.703125 7.8125 59.421875 
L 7.8125 69.390625 
Q 13.765625 71.78125 18.9375 73 
Q 24.125 74.21875 28.421875 74.21875 
Q 39.75 74.21875 46.484375 68.546875 
Q 53.21875 62.890625 53.21875 53.421875 
Q 53.21875 48.921875 51.53125 44.890625 
Q 49.859375 40.875 45.40625 35.40625 
Q 44.1875 33.984375 37.640625 27.21875 
Q 31.109375 20.453125 19.1875 8.296875 
z
" id="DejaVuSans-50"/>
    </defs>
    <g transform="translate(320.778593 392.7146)scale(0.24 -0.24)">
     <use xlink:href="#DejaVuSans-65"/>
     <use x="68.408203" xlink:href="#DejaVuSans-50"/>
    </g>
   </g>
   <g id="text_4">
    <!-- A3 -->
    <defs>
     <path d="M 40.578125 39.3125 
Q 47.65625 37.796875 51.625 33 
Q 55.609375 28.21875 55.609375 21.1875 
Q 55.609375 10.40625 48.1875 4.484375 
Q 40.765625 -1.421875 27.09375 -1.421875 
Q 22.515625 -1.421875 17.65625 -0.515625 
Q 12.796875 0.390625 7.625 2.203125 
L 7.625 11.71875 
Q 11.71875 9.328125 16.59375 8.109375 
Q 21.484375 6.890625 26.8125 6.890625 
Q 36.078125 6.890625 40.9375 10.546875 
Q 45.796875 14.203125 45.796875 21.1875 
Q 45.796875 27.640625 41.28125 31.265625 
Q 36.765625 34.90625 28.71875 34.90625 
L 20.21875 34.90625 
L 20.21875 43.015625 
L 29.109375 43.015625 
Q 36.375 43.015625 40.234375 45.921875 
Q 44.09375 48.828125 44.09375 54.296875 
Q 44.09375 59.90625 40.109375 62.90625 
Q 36.140625 65.921875 28.71875 65.921875 
Q 24.65625 65.921875 20.015625 65.03125 
Q 15.375 64.15625 9.8125 62.3125 
L 9.8125 71.09375 
Q 15.4375 72.65625 20.34375 73.4375 
Q 25.25 74.21875 29.59375 74.21875 
Q 40.828125 74.21875 47.359375 69.109375 
Q 53.90625 64.015625 53.90625 55.328125 
Q 53.90625 49.265625 50.4375 45.09375 
Q 46.96875 40.921875 40.578125 39.3125 
z
" id="DejaVuSans-51"/>
    </defs>
    <g transform="translate(348.713909 370.41726)scale(0.24 -0.24)">
     <use xlink:href="#DejaVuSans-65"/>
     <use x="68.408203" xlink:href="#DejaVuSans-51"/>
    </g>
   </g>
   <g id="text_5">
    <!-- A4 -->
    <defs>
     <path d="M 37.796875 64.3125 
L 12.890625 25.390625 
L 37.796875 25.390625 
z
M 35.203125 72.90625 
L 47.609375 72.90625 
L 47.609375 25.390625 
L 58.015625 25.390625 
L 58.015625 17.1875 
L 47.609375 17.1875 
L 47.609375 0 
L 37.796875 0 
L 37.796875 17.1875 
L 4.890625 17.1875 
L 4.890625 26.703125 
z
" id="DejaVuSans-52"/>
    </defs>
    <g transform="translate(375.618704 344.338517)scale(0.24 -0.24)">
     <use xlink:href="#DejaVuSans-65"/>
     <use x="68.408203" xlink:href="#DejaVuSans-52"/>
    </g>
   </g>
   <g id="text_6">
    <!-- $\beta$ -->
    <defs>
     <path d="M 13.625 3.375 
L 8.9375 -20.796875 
L -0.09375 -20.796875 
L 14.5 54.34375 
Q 18.84375 76.609375 39.65625 76.609375 
Q 60.75 76.609375 57.171875 57.8125 
Q 54.734375 44.4375 45.21875 39.546875 
Q 58.015625 35.15625 55.515625 22.125 
Q 51.125 -1.078125 27.484375 -1.03125 
Q 17.140625 -0.984375 13.625 3.375 
z
M 15.921875 15.09375 
Q 19.671875 6.59375 29.296875 6.640625 
Q 43.359375 6.640625 46.34375 21.96875 
Q 49.03125 35.75 26.171875 34.671875 
L 27.78125 42.96875 
Q 45.453125 42.671875 48.53125 58.59375 
Q 50.640625 69.34375 39.203125 69.28125 
Q 26.421875 69.28125 23.484375 54.046875 
z
" id="DejaVuSans-Oblique-946"/>
    </defs>
    <g transform="translate(319.925096 549.772026)scale(0.24 -0.24)">
     <use transform="translate(0 0.390625)" xlink:href="#DejaVuSans-Oblique-946"/>
    </g>
   </g>
   <g id="text_7">
    <!-- B1 -->
    <defs>
     <path d="M 19.671875 34.8125 
L 19.671875 8.109375 
L 35.5 8.109375 
Q 43.453125 8.109375 47.28125 11.40625 
Q 51.125 14.703125 51.125 21.484375 
Q 51.125 28.328125 47.28125 31.5625 
Q 43.453125 34.8125 35.5 34.8125 
z
M 19.671875 64.796875 
L 19.671875 42.828125 
L 34.28125 42.828125 
Q 41.5 42.828125 45.03125 45.53125 
Q 48.578125 48.25 48.578125 53.8125 
Q 48.578125 59.328125 45.03125 62.0625 
Q 41.5 64.796875 34.28125 64.796875 
z
M 9.8125 72.90625 
L 35.015625 72.90625 
Q 46.296875 72.90625 52.390625 68.21875 
Q 58.5 63.53125 58.5 54.890625 
Q 58.5 48.1875 55.375 44.234375 
Q 52.25 40.28125 46.1875 39.3125 
Q 53.46875 37.75 57.5 32.78125 
Q 61.53125 27.828125 61.53125 20.40625 
Q 61.53125 10.640625 54.890625 5.3125 
Q 48.25 0 35.984375 0 
L 9.8125 0 
z
" id="DejaVuSans-66"/>
    </defs>
    <g transform="translate(337.001764 492.503908)scale(0.24 -0.24)">
     <use xlink:href="#DejaVuSans-66"/>
     <use x="68.603516" xlink:href="#DejaVuSans-49"/>
    </g>
   </g>
   <g id="text_8">
    <!-- B2 -->
    <g transform="translate(373.570485 471.967888)scale(0.24 -0.24)">
     <use xlink:href="#DejaVuSans-66"/>
     <use x="68.603516" xlink:href="#DejaVuSans-50"/>
    </g>
   </g>
   <g id="text_9">
    <!-- B3 -->
    <g transform="translate(405.208146 443.27843)scale(0.24 -0.24)">
     <use xlink:href="#DejaVuSans-66"/>
     <use x="68.603516" xlink:href="#DejaVuSans-51"/>
    </g>
   </g>
   <g id="text_10">
    <!-- B4 -->
    <g transform="translate(429.819709 413.75523)scale(0.24 -0.24)">
     <use xlink:href="#DejaVuSans-66"/>
     <use x="68.603516" xlink:href="#DejaVuSans-52"/>
    </g>
   </g>
   <g id="text_11">
    <!-- $\gamma$ -->
    <defs>
     <path d="M 23.296875 46.09375 
L 28.71875 12.3125 
L 54 54.6875 
L 63.53125 54.6875 
L 30.8125 0 
L 26.765625 -20.796875 
L 17.78125 -20.796875 
L 21.828125 0 
L 15.4375 40.828125 
Q 14.453125 46.96875 9.8125 46.96875 
L 7.421875 46.96875 
L 8.890625 54.6875 
L 12.3125 54.6875 
Q 21.921875 54.6875 23.296875 46.09375 
z
" id="DejaVuSans-Oblique-947"/>
    </defs>
    <g transform="translate(384.918555 633.890884)scale(0.24 -0.24)">
     <use transform="translate(0 0.3125)" xlink:href="#DejaVuSans-Oblique-947"/>
    </g>
   </g>
   <g id="text_12">
    <!-- C1 -->
    <defs>
     <path d="M 64.40625 67.28125 
L 64.40625 56.890625 
Q 59.421875 61.53125 53.78125 63.8125 
Q 48.140625 66.109375 41.796875 66.109375 
Q 29.296875 66.109375 22.65625 58.46875 
Q 16.015625 50.828125 16.015625 36.375 
Q 16.015625 21.96875 22.65625 14.328125 
Q 29.296875 6.6875 41.796875 6.6875 
Q 48.140625 6.6875 53.78125 8.984375 
Q 59.421875 11.28125 64.40625 15.921875 
L 64.40625 5.609375 
Q 59.234375 2.09375 53.4375 0.328125 
Q 47.65625 -1.421875 41.21875 -1.421875 
Q 24.65625 -1.421875 15.125 8.703125 
Q 5.609375 18.84375 5.609375 36.375 
Q 5.609375 53.953125 15.125 64.078125 
Q 24.65625 74.21875 41.21875 74.21875 
Q 47.75 74.21875 53.53125 72.484375 
Q 59.328125 70.75 64.40625 67.28125 
z
" id="DejaVuSans-67"/>
    </defs>
    <g transform="translate(387.740761 564.192217)scale(0.24 -0.24)">
     <use xlink:href="#DejaVuSans-67"/>
     <use x="69.824219" xlink:href="#DejaVuSans-49"/>
    </g>
   </g>
   <g id="text_13">
    <!-- C2 -->
    <g transform="translate(429.828459 548.948493)scale(0.24 -0.24)">
     <use xlink:href="#DejaVuSans-67"/>
     <use x="69.824219" xlink:href="#DejaVuSans-50"/>
    </g>
   </g>
   <g id="text_14">
    <!-- C3 -->
    <g transform="translate(474.587982 523.531249)scale(0.24 -0.24)">
     <use xlink:href="#DejaVuSans-67"/>
     <use x="69.824219" xlink:href="#DejaVuSans-51"/>
    </g>
   </g>
   <g id="text_15">
    <!-- C4 -->
    <g transform="translate(448.564992 488.376634)scale(0.24 -0.24)">
     <use xlink:href="#DejaVuSans-67"/>
     <use x="69.824219" xlink:href="#DejaVuSans-52"/>
    </g>
   </g>
   <g id="text_16">
    <!-- C5 -->
    <defs>
     <path d="M 10.796875 72.90625 
L 49.515625 72.90625 
L 49.515625 64.59375 
L 19.828125 64.59375 
L 19.828125 46.734375 
Q 21.96875 47.46875 24.109375 47.828125 
Q 26.265625 48.1875 28.421875 48.1875 
Q 40.625 48.1875 47.75 41.5 
Q 54.890625 34.8125 54.890625 23.390625 
Q 54.890625 11.625 47.5625 5.09375 
Q 40.234375 -1.421875 26.90625 -1.421875 
Q 22.3125 -1.421875 17.546875 -0.640625 
Q 12.796875 0.140625 7.71875 1.703125 
L 7.71875 11.625 
Q 12.109375 9.234375 16.796875 8.0625 
Q 21.484375 6.890625 26.703125 6.890625 
Q 35.15625 6.890625 40.078125 11.328125 
Q 45.015625 15.765625 45.015625 23.390625 
Q 45.015625 31 40.078125 35.4375 
Q 35.15625 39.890625 26.703125 39.890625 
Q 22.75 39.890625 18.8125 39.015625 
Q 14.890625 38.140625 10.796875 36.28125 
z
" id="DejaVuSans-53"/>
    </defs>
    <g transform="translate(466.187435 443.132049)scale(0.24 -0.24)">
     <use xlink:href="#DejaVuSans-67"/>
     <use x="69.824219" xlink:href="#DejaVuSans-53"/>
    </g>
   </g>
   <g id="text_17">
    <!-- C6 -->
    <defs>
     <path d="M 33.015625 40.375 
Q 26.375 40.375 22.484375 35.828125 
Q 18.609375 31.296875 18.609375 23.390625 
Q 18.609375 15.53125 22.484375 10.953125 
Q 26.375 6.390625 33.015625 6.390625 
Q 39.65625 6.390625 43.53125 10.953125 
Q 47.40625 15.53125 47.40625 23.390625 
Q 47.40625 31.296875 43.53125 35.828125 
Q 39.65625 40.375 33.015625 40.375 
z
M 52.59375 71.296875 
L 52.59375 62.3125 
Q 48.875 64.0625 45.09375 64.984375 
Q 41.3125 65.921875 37.59375 65.921875 
Q 27.828125 65.921875 22.671875 59.328125 
Q 17.53125 52.734375 16.796875 39.40625 
Q 19.671875 43.65625 24.015625 45.921875 
Q 28.375 48.1875 33.59375 48.1875 
Q 44.578125 48.1875 50.953125 41.515625 
Q 57.328125 34.859375 57.328125 23.390625 
Q 57.328125 12.15625 50.6875 5.359375 
Q 44.046875 -1.421875 33.015625 -1.421875 
Q 20.359375 -1.421875 13.671875 8.265625 
Q 6.984375 17.96875 6.984375 36.375 
Q 6.984375 53.65625 15.1875 63.9375 
Q 23.390625 74.21875 37.203125 74.21875 
Q 40.921875 74.21875 44.703125 73.484375 
Q 48.484375 72.75 52.59375 71.296875 
z
" id="DejaVuSans-54"/>
    </defs>
    <g transform="translate(471.612384 393.020806)scale(0.14 -0.14)">
     <use xlink:href="#DejaVuSans-67"/>
     <use x="69.824219" xlink:href="#DejaVuSans-54"/>
    </g>
   </g>
   <g id="text_18">
    <!-- C7 -->
    <defs>
     <path d="M 8.203125 72.90625 
L 55.078125 72.90625 
L 55.078125 68.703125 
L 28.609375 0 
L 18.3125 0 
L 43.21875 64.59375 
L 8.203125 64.59375 
z
" id="DejaVuSans-55"/>
    </defs>
    <g transform="translate(476.895003 352.408105)scale(0.14 -0.14)">
     <use xlink:href="#DejaVuSans-67"/>
     <use x="69.824219" xlink:href="#DejaVuSans-55"/>
    </g>
   </g>
   <g id="text_19">
    <!-- C8 -->
    <defs>
     <path d="M 31.78125 34.625 
Q 24.75 34.625 20.71875 30.859375 
Q 16.703125 27.09375 16.703125 20.515625 
Q 16.703125 13.921875 20.71875 10.15625 
Q 24.75 6.390625 31.78125 6.390625 
Q 38.8125 6.390625 42.859375 10.171875 
Q 46.921875 13.96875 46.921875 20.515625 
Q 46.921875 27.09375 42.890625 30.859375 
Q 38.875 34.625 31.78125 34.625 
z
M 21.921875 38.8125 
Q 15.578125 40.375 12.03125 44.71875 
Q 8.5 49.078125 8.5 55.328125 
Q 8.5 64.0625 14.71875 69.140625 
Q 20.953125 74.21875 31.78125 74.21875 
Q 42.671875 74.21875 48.875 69.140625 
Q 55.078125 64.0625 55.078125 55.328125 
Q 55.078125 49.078125 51.53125 44.71875 
Q 48 40.375 41.703125 38.8125 
Q 48.828125 37.15625 52.796875 32.3125 
Q 56.78125 27.484375 56.78125 20.515625 
Q 56.78125 9.90625 50.3125 4.234375 
Q 43.84375 -1.421875 31.78125 -1.421875 
Q 19.734375 -1.421875 13.25 4.234375 
Q 6.78125 9.90625 6.78125 20.515625 
Q 6.78125 27.484375 10.78125 32.3125 
Q 14.796875 37.15625 21.921875 38.8125 
z
M 18.3125 54.390625 
Q 18.3125 48.734375 21.84375 45.5625 
Q 25.390625 42.390625 31.78125 42.390625 
Q 38.140625 42.390625 41.71875 45.5625 
Q 45.3125 48.734375 45.3125 54.390625 
Q 45.3125 60.0625 41.71875 63.234375 
Q 38.140625 66.40625 31.78125 66.40625 
Q 25.390625 66.40625 21.84375 63.234375 
Q 18.3125 60.0625 18.3125 54.390625 
z
" id="DejaVuSans-56"/>
    </defs>
    <g transform="translate(485.163031 317.763764)scale(0.14 -0.14)">
     <use xlink:href="#DejaVuSans-67"/>
     <use x="69.824219" xlink:href="#DejaVuSans-56"/>
    </g>
   </g>
   <g id="text_20">
    <!-- C9 -->
    <defs>
     <path d="M 10.984375 1.515625 
L 10.984375 10.5 
Q 14.703125 8.734375 18.5 7.8125 
Q 22.3125 6.890625 25.984375 6.890625 
Q 35.75 6.890625 40.890625 13.453125 
Q 46.046875 20.015625 46.78125 33.40625 
Q 43.953125 29.203125 39.59375 26.953125 
Q 35.25 24.703125 29.984375 24.703125 
Q 19.046875 24.703125 12.671875 31.3125 
Q 6.296875 37.9375 6.296875 49.421875 
Q 6.296875 60.640625 12.9375 67.421875 
Q 19.578125 74.21875 30.609375 74.21875 
Q 43.265625 74.21875 49.921875 64.515625 
Q 56.59375 54.828125 56.59375 36.375 
Q 56.59375 19.140625 48.40625 8.859375 
Q 40.234375 -1.421875 26.421875 -1.421875 
Q 22.703125 -1.421875 18.890625 -0.6875 
Q 15.09375 0.046875 10.984375 1.515625 
z
M 30.609375 32.421875 
Q 37.25 32.421875 41.125 36.953125 
Q 45.015625 41.5 45.015625 49.421875 
Q 45.015625 57.28125 41.125 61.84375 
Q 37.25 66.40625 30.609375 66.40625 
Q 23.96875 66.40625 20.09375 61.84375 
Q 16.21875 57.28125 16.21875 49.421875 
Q 16.21875 41.5 20.09375 36.953125 
Q 23.96875 32.421875 30.609375 32.421875 
z
" id="DejaVuSans-57"/>
    </defs>
    <g transform="translate(493.08348 281.860043)scale(0.14 -0.14)">
     <use xlink:href="#DejaVuSans-67"/>
     <use x="69.824219" xlink:href="#DejaVuSans-57"/>
    </g>
   </g>
   <g id="text_21">
    <!-- $\delta$ -->
    <defs>
     <path d="M 54.25 63.328125 
Q 49.953125 66.75 38.28125 66.75 
Q 25.921875 66.75 24.8125 61.03125 
Q 23.921875 56.546875 36.375 54.203125 
Q 46.140625 52.390625 50.828125 46.921875 
Q 56.5 40.328125 53.859375 26.8125 
Q 51.3125 13.875 43.171875 6.25 
Q 34.96875 -1.421875 23.25 -1.421875 
Q 11.578125 -1.421875 6.34375 6.25 
Q 1.125 13.875 3.765625 27.296875 
Q 5.671875 37.25 13.921875 45.3125 
Q 17.140625 48.4375 21.140625 50.203125 
Q 14.265625 54.046875 15.625 60.9375 
Q 18.21875 74.21875 39.75 74.21875 
Q 50.53125 74.21875 55.71875 70.796875 
z
M 27.390625 47.75 
Q 23.828125 46.34375 20.40625 42.78125 
Q 15.140625 37.25 13.234375 27.296875 
Q 11.28125 17.390625 14.359375 11.8125 
Q 17.484375 6.203125 24.75 6.203125 
Q 31.9375 6.203125 37.203125 11.859375 
Q 42.53125 17.53125 44.34375 26.8125 
Q 46.1875 36.53125 42.671875 41.21875 
Q 38.921875 46.234375 32.859375 46.78125 
Q 29.78125 47.078125 27.390625 47.75 
z
" id="DejaVuSans-Oblique-948"/>
    </defs>
    <g transform="translate(460.573463 692.195991)scale(0.24 -0.24)">
     <use transform="translate(0 0.78125)" xlink:href="#DejaVuSans-Oblique-948"/>
    </g>
   </g>
   <g id="text_22">
    <!-- D1 -->
    <defs>
     <path d="M 19.671875 64.796875 
L 19.671875 8.109375 
L 31.59375 8.109375 
Q 46.6875 8.109375 53.6875 14.9375 
Q 60.6875 21.78125 60.6875 36.53125 
Q 60.6875 51.171875 53.6875 57.984375 
Q 46.6875 64.796875 31.59375 64.796875 
z
M 9.8125 72.90625 
L 30.078125 72.90625 
Q 51.265625 72.90625 61.171875 64.09375 
Q 71.09375 55.28125 71.09375 36.53125 
Q 71.09375 17.671875 61.125 8.828125 
Q 51.171875 0 30.078125 0 
L 9.8125 0 
z
" id="DejaVuSans-68"/>
    </defs>
    <g transform="translate(446.429131 635.115768)scale(0.24 -0.24)">
     <use xlink:href="#DejaVuSans-68"/>
     <use x="77.001953" xlink:href="#DejaVuSans-49"/>
    </g>
   </g>
   <g id="text_23">
    <!-- D2 -->
    <g transform="translate(494.273161 621.048962)scale(0.14 -0.14)">
     <use xlink:href="#DejaVuSans-68"/>
     <use x="77.001953" xlink:href="#DejaVuSans-50"/>
    </g>
   </g>
   <g id="text_24">
    <!-- D3 -->
    <g transform="translate(513.581412 607.644742)scale(0.24 -0.24)">
     <use xlink:href="#DejaVuSans-68"/>
     <use x="77.001953" xlink:href="#DejaVuSans-51"/>
    </g>
   </g>
   <g id="text_25">
    <!-- D4 -->
    <g transform="translate(541.451625 565.082825)scale(0.24 -0.24)">
     <use xlink:href="#DejaVuSans-68"/>
     <use x="77.001953" xlink:href="#DejaVuSans-52"/>
    </g>
   </g>
   <g id="text_26">
    <!-- D5 -->
    <g transform="translate(549.169805 518.416039)scale(0.24 -0.24)">
     <use xlink:href="#DejaVuSans-68"/>
     <use x="77.001953" xlink:href="#DejaVuSans-53"/>
    </g>
   </g>
   <g id="text_27">
    <!-- D6 -->
    <g transform="translate(554.797023 479.067862)scale(0.14 -0.14)">
     <use xlink:href="#DejaVuSans-68"/>
     <use x="77.001953" xlink:href="#DejaVuSans-54"/>
    </g>
   </g>
   <g id="text_28">
    <!-- D7 -->
    <g transform="translate(548.327734 440.225902)scale(0.14 -0.14)">
     <use xlink:href="#DejaVuSans-68"/>
     <use x="77.001953" xlink:href="#DejaVuSans-55"/>
    </g>
   </g>
   <g id="text_29">
    <!-- D8 -->
    <g transform="translate(543.367748 396.933502)scale(0.14 -0.14)">
     <use xlink:href="#DejaVuSans-68"/>
     <use x="77.001953" xlink:href="#DejaVuSans-56"/>
    </g>
   </g>
   <g id="text_30">
    <!-- D9 -->
    <g transform="translate(550.024394 361.36267)scale(0.14 -0.14)">
     <use xlink:href="#DejaVuSans-68"/>
     <use x="77.001953" xlink:href="#DejaVuSans-57"/>
    </g>
   </g>
   <g id="text_31">
    <!-- D10 -->
    <defs>
     <path d="M 31.78125 66.40625 
Q 24.171875 66.40625 20.328125 58.90625 
Q 16.5 51.421875 16.5 36.375 
Q 16.5 21.390625 20.328125 13.890625 
Q 24.171875 6.390625 31.78125 6.390625 
Q 39.453125 6.390625 43.28125 13.890625 
Q 47.125 21.390625 47.125 36.375 
Q 47.125 51.421875 43.28125 58.90625 
Q 39.453125 66.40625 31.78125 66.40625 
z
M 31.78125 74.21875 
Q 44.046875 74.21875 50.515625 64.515625 
Q 56.984375 54.828125 56.984375 36.375 
Q 56.984375 17.96875 50.515625 8.265625 
Q 44.046875 -1.421875 31.78125 -1.421875 
Q 19.53125 -1.421875 13.0625 8.265625 
Q 6.59375 17.96875 6.59375 36.375 
Q 6.59375 54.828125 13.0625 64.515625 
Q 19.53125 74.21875 31.78125 74.21875 
z
" id="DejaVuSans-48"/>
    </defs>
    <g transform="translate(557.261902 322.936928)scale(0.14 -0.14)">
     <use xlink:href="#DejaVuSans-68"/>
     <use x="77.001953" xlink:href="#DejaVuSans-49"/>
     <use x="140.625" xlink:href="#DejaVuSans-48"/>
    </g>
   </g>
   <g id="text_32">
    <!-- D11 -->
    <g transform="translate(565.869365 289.554142)scale(0.14 -0.14)">
     <use xlink:href="#DejaVuSans-68"/>
     <use x="77.001953" xlink:href="#DejaVuSans-49"/>
     <use x="140.625" xlink:href="#DejaVuSans-49"/>
    </g>
   </g>
   <g id="text_33">
    <!-- E1 -->
    <defs>
     <path d="M 9.8125 72.90625 
L 55.90625 72.90625 
L 55.90625 64.59375 
L 19.671875 64.59375 
L 19.671875 43.015625 
L 54.390625 43.015625 
L 54.390625 34.71875 
L 19.671875 34.71875 
L 19.671875 8.296875 
L 56.78125 8.296875 
L 56.78125 0 
L 9.8125 0 
z
" id="DejaVuSans-69"/>
    </defs>
    <g transform="translate(505.750919 698.953089)scale(0.24 -0.24)">
     <use xlink:href="#DejaVuSans-69"/>
     <use x="63.183594" xlink:href="#DejaVuSans-49"/>
    </g>
   </g>
   <g id="text_34">
    <!-- E2 -->
    <g transform="translate(595.261913 698.145208)scale(0.24 -0.24)">
     <use xlink:href="#DejaVuSans-69"/>
     <use x="63.183594" xlink:href="#DejaVuSans-50"/>
    </g>
   </g>
   <g id="text_35">
    <!-- E3 -->
    <g transform="translate(657.429487 666.748008)scale(0.24 -0.24)">
     <use xlink:href="#DejaVuSans-69"/>
     <use x="63.183594" xlink:href="#DejaVuSans-51"/>
    </g>
   </g>
   <g id="text_36">
    <!-- E4 -->
    <g transform="translate(668.270242 616.548072)scale(0.24 -0.24)">
     <use xlink:href="#DejaVuSans-69"/>
     <use x="63.183594" xlink:href="#DejaVuSans-52"/>
    </g>
   </g>
   <g id="text_37">
    <!-- E5 -->
    <g transform="translate(665.298048 560.556074)scale(0.24 -0.24)">
     <use xlink:href="#DejaVuSans-69"/>
     <use x="63.183594" xlink:href="#DejaVuSans-53"/>
    </g>
   </g>
   <g id="text_38">
    <!-- E6 -->
    <g transform="translate(643.753099 516.258998)scale(0.14 -0.14)">
     <use xlink:href="#DejaVuSans-69"/>
     <use x="63.183594" xlink:href="#DejaVuSans-54"/>
    </g>
   </g>
   <g id="text_39">
    <!-- E7 -->
    <g transform="translate(643.521906 470.35697)scale(0.14 -0.14)">
     <use xlink:href="#DejaVuSans-69"/>
     <use x="63.183594" xlink:href="#DejaVuSans-55"/>
    </g>
   </g>
   <g id="text_40">
    <!-- E8 -->
    <g transform="translate(641.338805 422.26284)scale(0.14 -0.14)">
     <use xlink:href="#DejaVuSans-69"/>
     <use x="63.183594" xlink:href="#DejaVuSans-56"/>
    </g>
   </g>
   <g id="text_41">
    <!-- E9 -->
    <g transform="translate(637.302096 377.371939)scale(0.14 -0.14)">
     <use xlink:href="#DejaVuSans-69"/>
     <use x="63.183594" xlink:href="#DejaVuSans-57"/>
    </g>
   </g>
   <g id="text_42">
    <!-- E10 -->
    <g transform="translate(647.420751 339.529512)scale(0.14 -0.14)">
     <use xlink:href="#DejaVuSans-69"/>
     <use x="63.183594" xlink:href="#DejaVuSans-49"/>
     <use x="126.806641" xlink:href="#DejaVuSans-48"/>
    </g>
   </g>
   <g id="text_43">
    <!-- E11 -->
    <g transform="translate(627.689453 306.921993)scale(0.14 -0.14)">
     <use xlink:href="#DejaVuSans-69"/>
     <use x="63.183594" xlink:href="#DejaVuSans-49"/>
     <use x="126.806641" xlink:href="#DejaVuSans-49"/>
    </g>
   </g>
   <g id="text_44">
    <!-- ant. -->
    <defs>
     <path d="M 34.28125 27.484375 
Q 23.390625 27.484375 19.1875 25 
Q 14.984375 22.515625 14.984375 16.5 
Q 14.984375 11.71875 18.140625 8.90625 
Q 21.296875 6.109375 26.703125 6.109375 
Q 34.1875 6.109375 38.703125 11.40625 
Q 43.21875 16.703125 43.21875 25.484375 
L 43.21875 27.484375 
z
M 52.203125 31.203125 
L 52.203125 0 
L 43.21875 0 
L 43.21875 8.296875 
Q 40.140625 3.328125 35.546875 0.953125 
Q 30.953125 -1.421875 24.3125 -1.421875 
Q 15.921875 -1.421875 10.953125 3.296875 
Q 6 8.015625 6 15.921875 
Q 6 25.140625 12.171875 29.828125 
Q 18.359375 34.515625 30.609375 34.515625 
L 43.21875 34.515625 
L 43.21875 35.40625 
Q 43.21875 41.609375 39.140625 45 
Q 35.0625 48.390625 27.6875 48.390625 
Q 23 48.390625 18.546875 47.265625 
Q 14.109375 46.140625 10.015625 43.890625 
L 10.015625 52.203125 
Q 14.9375 54.109375 19.578125 55.046875 
Q 24.21875 56 28.609375 56 
Q 40.484375 56 46.34375 49.84375 
Q 52.203125 43.703125 52.203125 31.203125 
z
" id="DejaVuSans-97"/>
     <path d="M 54.890625 33.015625 
L 54.890625 0 
L 45.90625 0 
L 45.90625 32.71875 
Q 45.90625 40.484375 42.875 44.328125 
Q 39.84375 48.1875 33.796875 48.1875 
Q 26.515625 48.1875 22.3125 43.546875 
Q 18.109375 38.921875 18.109375 30.90625 
L 18.109375 0 
L 9.078125 0 
L 9.078125 54.6875 
L 18.109375 54.6875 
L 18.109375 46.1875 
Q 21.34375 51.125 25.703125 53.5625 
Q 30.078125 56 35.796875 56 
Q 45.21875 56 50.046875 50.171875 
Q 54.890625 44.34375 54.890625 33.015625 
z
" id="DejaVuSans-110"/>
     <path d="M 18.3125 70.21875 
L 18.3125 54.6875 
L 36.8125 54.6875 
L 36.8125 47.703125 
L 18.3125 47.703125 
L 18.3125 18.015625 
Q 18.3125 11.328125 20.140625 9.421875 
Q 21.96875 7.515625 27.59375 7.515625 
L 36.8125 7.515625 
L 36.8125 0 
L 27.59375 0 
Q 17.1875 0 13.234375 3.875 
Q 9.28125 7.765625 9.28125 18.015625 
L 9.28125 47.703125 
L 2.6875 47.703125 
L 2.6875 54.6875 
L 9.28125 54.6875 
L 9.28125 70.21875 
z
" id="DejaVuSans-116"/>
     <path d="M 10.6875 12.40625 
L 21 12.40625 
L 21 0 
L 10.6875 0 
z
" id="DejaVuSans-46"/>
    </defs>
    <g transform="translate(496.890944 800.817142)scale(0.42 -0.42)">
     <use xlink:href="#DejaVuSans-97"/>
     <use x="61.279297" xlink:href="#DejaVuSans-110"/>
     <use x="124.658203" xlink:href="#DejaVuSans-116"/>
     <use x="163.867188" xlink:href="#DejaVuSans-46"/>
    </g>
   </g>
   <g id="text_45">
    <!-- post. -->
    <defs>
     <path d="M 18.109375 8.203125 
L 18.109375 -20.796875 
L 9.078125 -20.796875 
L 9.078125 54.6875 
L 18.109375 54.6875 
L 18.109375 46.390625 
Q 20.953125 51.265625 25.265625 53.625 
Q 29.59375 56 35.59375 56 
Q 45.5625 56 51.78125 48.09375 
Q 58.015625 40.1875 58.015625 27.296875 
Q 58.015625 14.40625 51.78125 6.484375 
Q 45.5625 -1.421875 35.59375 -1.421875 
Q 29.59375 -1.421875 25.265625 0.953125 
Q 20.953125 3.328125 18.109375 8.203125 
z
M 48.6875 27.296875 
Q 48.6875 37.203125 44.609375 42.84375 
Q 40.53125 48.484375 33.40625 48.484375 
Q 26.265625 48.484375 22.1875 42.84375 
Q 18.109375 37.203125 18.109375 27.296875 
Q 18.109375 17.390625 22.1875 11.75 
Q 26.265625 6.109375 33.40625 6.109375 
Q 40.53125 6.109375 44.609375 11.75 
Q 48.6875 17.390625 48.6875 27.296875 
z
" id="DejaVuSans-112"/>
     <path d="M 30.609375 48.390625 
Q 23.390625 48.390625 19.1875 42.75 
Q 14.984375 37.109375 14.984375 27.296875 
Q 14.984375 17.484375 19.15625 11.84375 
Q 23.34375 6.203125 30.609375 6.203125 
Q 37.796875 6.203125 41.984375 11.859375 
Q 46.1875 17.53125 46.1875 27.296875 
Q 46.1875 37.015625 41.984375 42.703125 
Q 37.796875 48.390625 30.609375 48.390625 
z
M 30.609375 56 
Q 42.328125 56 49.015625 48.375 
Q 55.71875 40.765625 55.71875 27.296875 
Q 55.71875 13.875 49.015625 6.21875 
Q 42.328125 -1.421875 30.609375 -1.421875 
Q 18.84375 -1.421875 12.171875 6.21875 
Q 5.515625 13.875 5.515625 27.296875 
Q 5.515625 40.765625 12.171875 48.375 
Q 18.84375 56 30.609375 56 
z
" id="DejaVuSans-111"/>
     <path d="M 44.28125 53.078125 
L 44.28125 44.578125 
Q 40.484375 46.53125 36.375 47.5 
Q 32.28125 48.484375 27.875 48.484375 
Q 21.1875 48.484375 17.84375 46.4375 
Q 14.5 44.390625 14.5 40.28125 
Q 14.5 37.15625 16.890625 35.375 
Q 19.28125 33.59375 26.515625 31.984375 
L 29.59375 31.296875 
Q 39.15625 29.25 43.1875 25.515625 
Q 47.21875 21.78125 47.21875 15.09375 
Q 47.21875 7.46875 41.1875 3.015625 
Q 35.15625 -1.421875 24.609375 -1.421875 
Q 20.21875 -1.421875 15.453125 -0.5625 
Q 10.6875 0.296875 5.421875 2 
L 5.421875 11.28125 
Q 10.40625 8.6875 15.234375 7.390625 
Q 20.0625 6.109375 24.8125 6.109375 
Q 31.15625 6.109375 34.5625 8.28125 
Q 37.984375 10.453125 37.984375 14.40625 
Q 37.984375 18.0625 35.515625 20.015625 
Q 33.0625 21.96875 24.703125 23.78125 
L 21.578125 24.515625 
Q 13.234375 26.265625 9.515625 29.90625 
Q 5.8125 33.546875 5.8125 39.890625 
Q 5.8125 47.609375 11.28125 51.796875 
Q 16.75 56 26.8125 56 
Q 31.78125 56 36.171875 55.265625 
Q 40.578125 54.546875 44.28125 53.078125 
z
" id="DejaVuSans-115"/>
    </defs>
    <g transform="translate(472.438055 182.703287)scale(0.42 -0.42)">
     <use xlink:href="#DejaVuSans-112"/>
     <use x="63.476562" xlink:href="#DejaVuSans-111"/>
     <use x="124.658203" xlink:href="#DejaVuSans-115"/>
     <use x="176.757812" xlink:href="#DejaVuSans-116"/>
     <use x="215.966797" xlink:href="#DejaVuSans-46"/>
    </g>
   </g>
   <g id="text_46">
    <!-- lat. -->
    <defs>
     <path d="M 9.421875 75.984375 
L 18.40625 75.984375 
L 18.40625 0 
L 9.421875 0 
z
" id="DejaVuSans-108"/>
    </defs>
    <g transform="translate(134.456004 399.54125)scale(0.42 -0.42)">
     <use xlink:href="#DejaVuSans-108"/>
     <use x="27.783203" xlink:href="#DejaVuSans-97"/>
     <use x="89.0625" xlink:href="#DejaVuSans-116"/>
     <use x="128.271484" xlink:href="#DejaVuSans-46"/>
    </g>
   </g>
   <g id="text_47">
    <!-- med. -->
    <defs>
     <path d="M 52 44.1875 
Q 55.375 50.25 60.0625 53.125 
Q 64.75 56 71.09375 56 
Q 79.640625 56 84.28125 50.015625 
Q 88.921875 44.046875 88.921875 33.015625 
L 88.921875 0 
L 79.890625 0 
L 79.890625 32.71875 
Q 79.890625 40.578125 77.09375 44.375 
Q 74.3125 48.1875 68.609375 48.1875 
Q 61.625 48.1875 57.5625 43.546875 
Q 53.515625 38.921875 53.515625 30.90625 
L 53.515625 0 
L 44.484375 0 
L 44.484375 32.71875 
Q 44.484375 40.625 41.703125 44.40625 
Q 38.921875 48.1875 33.109375 48.1875 
Q 26.21875 48.1875 22.15625 43.53125 
Q 18.109375 38.875 18.109375 30.90625 
L 18.109375 0 
L 9.078125 0 
L 9.078125 54.6875 
L 18.109375 54.6875 
L 18.109375 46.1875 
Q 21.1875 51.21875 25.484375 53.609375 
Q 29.78125 56 35.6875 56 
Q 41.65625 56 45.828125 52.96875 
Q 50 49.953125 52 44.1875 
z
" id="DejaVuSans-109"/>
     <path d="M 56.203125 29.59375 
L 56.203125 25.203125 
L 14.890625 25.203125 
Q 15.484375 15.921875 20.484375 11.0625 
Q 25.484375 6.203125 34.421875 6.203125 
Q 39.59375 6.203125 44.453125 7.46875 
Q 49.3125 8.734375 54.109375 11.28125 
L 54.109375 2.78125 
Q 49.265625 0.734375 44.1875 -0.34375 
Q 39.109375 -1.421875 33.890625 -1.421875 
Q 20.796875 -1.421875 13.15625 6.1875 
Q 5.515625 13.8125 5.515625 26.8125 
Q 5.515625 40.234375 12.765625 48.109375 
Q 20.015625 56 32.328125 56 
Q 43.359375 56 49.78125 48.890625 
Q 56.203125 41.796875 56.203125 29.59375 
z
M 47.21875 32.234375 
Q 47.125 39.59375 43.09375 43.984375 
Q 39.0625 48.390625 32.421875 48.390625 
Q 24.90625 48.390625 20.390625 44.140625 
Q 15.875 39.890625 15.1875 32.171875 
z
" id="DejaVuSans-101"/>
     <path d="M 45.40625 46.390625 
L 45.40625 75.984375 
L 54.390625 75.984375 
L 54.390625 0 
L 45.40625 0 
L 45.40625 8.203125 
Q 42.578125 3.328125 38.25 0.953125 
Q 33.9375 -1.421875 27.875 -1.421875 
Q 17.96875 -1.421875 11.734375 6.484375 
Q 5.515625 14.40625 5.515625 27.296875 
Q 5.515625 40.1875 11.734375 48.09375 
Q 17.96875 56 27.875 56 
Q 33.9375 56 38.25 53.625 
Q 42.578125 51.265625 45.40625 46.390625 
z
M 14.796875 27.296875 
Q 14.796875 17.390625 18.875 11.75 
Q 22.953125 6.109375 30.078125 6.109375 
Q 37.203125 6.109375 41.296875 11.75 
Q 45.40625 17.390625 45.40625 27.296875 
Q 45.40625 37.203125 41.296875 42.84375 
Q 37.203125 48.484375 30.078125 48.484375 
Q 22.953125 48.484375 18.875 42.84375 
Q 14.796875 37.203125 14.796875 27.296875 
z
" id="DejaVuSans-100"/>
    </defs>
    <g transform="translate(740.973083 536.758039)scale(0.42 -0.42)">
     <use xlink:href="#DejaVuSans-109"/>
     <use x="97.412109" xlink:href="#DejaVuSans-101"/>
     <use x="158.935547" xlink:href="#DejaVuSans-100"/>
     <use x="222.412109" xlink:href="#DejaVuSans-46"/>
    </g>
   </g>
  </g>
 </g>
 <defs>
  <clipPath id="p14a5874774">
   <rect height="689.04" width="693.514286" x="135" y="129.6"/>
  </clipPath>
 </defs>
</svg>
