<?xml version="1.0" encoding="UTF-8" standalone="no"?>
<svg
   xmlns:dc="http://purl.org/dc/elements/1.1/"
   xmlns:cc="http://creativecommons.org/ns#"
   xmlns:rdf="http://www.w3.org/1999/02/22-rdf-syntax-ns#"
   xmlns:svg="http://www.w3.org/2000/svg"
   xmlns="http://www.w3.org/2000/svg"
   xmlns:sodipodi="http://sodipodi.sourceforge.net/DTD/sodipodi-0.dtd"
   xmlns:inkscape="http://www.inkscape.org/namespaces/inkscape"
   id="svg8"
   version="1.1"
   viewBox="0 0 240.92584 99.549773"
   height="99.549774mm"
   width="240.92584mm"
   sodipodi:docname="whiskerbarrels_twofields2.svg"
   inkscape:version="0.92.3 (2405546, 2018-03-11)">
  <sodipodi:namedview
     pagecolor="#ffffff"
     bordercolor="#666666"
     borderopacity="1"
     objecttolerance="10"
     gridtolerance="10"
     guidetolerance="10"
     inkscape:pageopacity="0"
     inkscape:pageshadow="2"
     inkscape:window-width="2430"
     inkscape:window-height="1456"
     id="namedview9631"
     showgrid="false"
     inkscape:zoom="0.7334431"
     inkscape:cx="530.52484"
     inkscape:cy="446.26259"
     inkscape:window-x="770"
     inkscape:window-y="208"
     inkscape:window-maximized="0"
     inkscape:current-layer="svg8"
     fit-margin-top="0"
     fit-margin-left="0"
     fit-margin-right="0"
     fit-margin-bottom="0" />
  <defs
     id="defs2">
    <marker
       inkscape:stockid="Arrow1Lstart"
       orient="auto"
       refY="0"
       refX="0"
       id="Arrow1Lstart"
       style="overflow:visible"
       inkscape:isstock="true">
      <path
         inkscape:connector-curvature="0"
         id="path930"
         d="M 0,0 5,-5 -12.5,0 5,5 Z"
         style="fill:#ff0000;fill-opacity:1;fill-rule:evenodd;stroke:#ff0000;stroke-width:1.00000003pt;stroke-opacity:1"
         transform="matrix(0.8,0,0,0.8,10,0)" />
    </marker>
    <marker
       inkscape:stockid="Arrow1Lend"
       orient="auto"
       refY="0"
       refX="0"
       id="Arrow1Lend"
       style="overflow:visible"
       inkscape:isstock="true">
      <path
         inkscape:connector-curvature="0"
         id="path933"
         d="M 0,0 5,-5 -12.5,0 5,5 Z"
         style="fill:#ff0000;fill-opacity:1;fill-rule:evenodd;stroke:#ff0000;stroke-width:1.00000003pt;stroke-opacity:1"
         transform="matrix(-0.8,0,0,-0.8,-10,0)" />
    </marker>
  </defs>
  <metadata
     id="metadata5">
    <rdf:RDF>
      <cc:Work
         rdf:about="">
        <dc:format>image/svg+xml</dc:format>
        <dc:type
           rdf:resource="http://purl.org/dc/dcmitype/StillImage" />
        <dc:title></dc:title>
      </cc:Work>
    </rdf:RDF>
  </metadata>
  <g
     id="x7_mm"
     transform="translate(-43.48564,-10.267129)">
    <a
       id="a4760">
      <g
         id="layer3"
         style="display:inline">
        <path
           style="fill:none;stroke:#000000;stroke-width:0.26458332px;stroke-linecap:butt;stroke-linejoin:miter;stroke-opacity:1"
           d="m 134.46503,87.601188 c 50.64881,8.12649 50.64881,8.12649 50.64881,8.12649"
           id="path4927"
           inkscape:connector-curvature="0" />
      </g>
    </a>
  </g>
  <g
     id="cortex"
     transform="rotate(3.0296151,440.68498,1742.3195)">
    <g
       style="display:inline"
       id="layer2">
      <path
         inkscape:connector-curvature="0"
         id="path4812"
         d="M 41.955357,40.354165 C 79.941963,-1.6011911 109.99107,24.857143 109.99107,24.857143 c 0,0 -1.42138,-1.604189 13.60715,13.229166 14.55208,14.363096 12.07836,14.469546 8.50445,21.922618 C 115.3791,94.884529 100.8174,114.74102 91.848216,115.57142 79.38485,116.72534 63.17771,97.996201 44.412202,82.687498 40.821428,79.758183 37.841913,77.138926 35.407953,74.768085 32.973993,72.397244 30.847361,70.300921 28.80536,67.555123 28.091079,66.594658 24.954681,64.865358 21.907244,64.966278 18.76672,65.07028 16.43065,66.140142 15.775619,66.896572 11.722327,71.956214 7.8928362,76.547354 7.1633556,77.36879 0.46654888,85.401189 -0.40085497,85.78544 -6.2725395,92.247453 -12.144224,98.709467 -29.053983,121.1436 -43.217464,122.02113 -57.380945,122.89866 -83.19543,80.563151 -86.697271,73.916494 c -3.50184,-6.646656 -4.903207,-14.357979 5.894068,-27.681273 10.797275,-13.323294 17.120375,-17.008025 21.092568,-19.645519 4.942343,-3.281664 29.341105,-7.14853 46.630727,5.458301 0.430119,0.313624 8.6127502,8.131082 15.471174,13.013819 7.991823,5.689641 9.90207,7.005706 12.566765,9.303958 2.030318,1.751112 3.600227,2.206099 6.344758,2.04184 2.585336,-0.154732 3.468743,-0.374609 6.331275,-2.337221 1.342466,-0.920423 2.589266,-2.511309 3.968289,-3.939055 1.379022,-1.427746 2.975086,-2.915289 4.722488,-4.524272 1.747401,-1.608982 3.646141,-3.339405 5.630516,-5.252909"
         style="fill:none;stroke:#000000;stroke-width:0.26458332px;stroke-linecap:butt;stroke-linejoin:miter;stroke-opacity:1"
         sodipodi:nodetypes="ccsscsssscczzzzssssssssc" />
    </g>
  </g>
  <path
     style="fill:none;stroke:#ff0000;stroke-width:0.26458332;stroke-linecap:butt;stroke-linejoin:miter;stroke-miterlimit:3.70000005;stroke-dasharray:none;stroke-opacity:1;marker-start:url(#Arrow1Lstart);marker-end:url(#Arrow1Lend)"
     d="M 77.15452,40.749256 215.52105,39.213204"
     id="path928"
     inkscape:connector-curvature="0"
     sodipodi:nodetypes="cc" />
  <g
     id="cortex-7"
     transform="matrix(-0.99860235,0.05285212,0.05285212,0.99860235,129.50229,-21.372446)">
    <g
       style="display:inline"
       id="layer2-6" />
  </g>
</svg>
