<?xml version="1.0" encoding="UTF-8" standalone="no"?>
<svg
   xmlns:dc="http://purl.org/dc/elements/1.1/"
   xmlns:cc="http://creativecommons.org/ns#"
   xmlns:rdf="http://www.w3.org/1999/02/22-rdf-syntax-ns#"
   xmlns:svg="http://www.w3.org/2000/svg"
   xmlns="http://www.w3.org/2000/svg"
   xmlns:sodipodi="http://sodipodi.sourceforge.net/DTD/sodipodi-0.dtd"
   xmlns:inkscape="http://www.inkscape.org/namespaces/inkscape"
   width="210mm"
   height="297mm"
   viewBox="0 0 210 297"
   version="1.1"
   id="svg8"
   sodipodi:docname="whiskerbarrels_twofields.svg"
   inkscape:version="0.92.3 (2405546, 2018-03-11)">
  <sodipodi:namedview
     pagecolor="#ffffff"
     bordercolor="#666666"
     borderopacity="1"
     objecttolerance="10"
     gridtolerance="10"
     guidetolerance="10"
     inkscape:pageopacity="0"
     inkscape:pageshadow="2"
     inkscape:window-width="2668"
     inkscape:window-height="1698"
     id="namedview4757"
     showgrid="false"
     inkscape:zoom="1.8670917"
     inkscape:cx="283.58395"
     inkscape:cy="707.22062"
     inkscape:window-x="829"
     inkscape:window-y="520"
     inkscape:window-maximized="0"
     inkscape:current-layer="svg8" />
  <defs
     id="defs2" />
  <metadata
     id="metadata5">
    <rdf:RDF>
      <cc:Work
         rdf:about="">
        <dc:format>image/svg+xml</dc:format>
        <dc:type
           rdf:resource="http://purl.org/dc/dcmitype/StillImage" />
        <dc:title></dc:title>
      </cc:Work>
    </rdf:RDF>
  </metadata>
  <g
     transform="rotate(43.069306,40.77586,-22.551448)"
     id="x7_mm">
    <a
       id="a4760">
      <g
         style="display:inline"
         id="layer3">
        <path
           id="path4927"
           d="m 134.46503,87.601188 c 50.64881,8.12649 50.64881,8.12649 50.64881,8.12649"
           style="fill:none;stroke:#000000;stroke-width:0.26458332px;stroke-linecap:butt;stroke-linejoin:miter;stroke-opacity:1"
           inkscape:connector-curvature="0" />
      </g>
    </a>
  </g>
  <path
     style="fill:none;stroke:#002000;stroke-width:0.26458332px;stroke-linecap:butt;stroke-linejoin:miter;stroke-opacity:1"
     d="m 9.7257887,121.54907 c 2.1983983,-14.13363 6.4069353,-19.244 19.9343753,-28.162089 13.021821,-8.584756 26.353456,-7.214632 35.371747,-7.314837 9.037754,-0.100421 15.932318,0.501017 30.361587,0.100205 14.429272,-0.400814 14.996512,0.724818 27.138092,0.0618 12.14158,-0.663019 18.75661,-3.172806 35.08813,4.54755 16.53353,7.815854 16.16982,9.202324 22.14492,20.641873 4.92959,9.43788 5.3294,41.69413 3.1063,45.99329 -2.86138,5.5335 -22.94654,10.32094 -33.9689,13.72785 -11.02236,3.40691 -23.44757,6.51321 -29.45976,6.71362 -6.0122,0.2004 -9.1185,0.50101 -13.32703,-3.70752 -9.719714,-6.91403 -8.027466,-6.49925 -17.936381,-0.80163 -8.016265,4.60935 -10.020331,4.20854 -14.228868,4.20854 -4.208536,0 -14.028455,-0.50102 -26.253253,-4.50915 C 35.471953,169.04044 11.527644,161.62523 9.9201222,158.5191 6.3567995,151.63387 9.7257887,121.54907 9.7257887,121.54907 Z"
     id="cortex"
     inkscape:connector-curvature="0"
     sodipodi:nodetypes="cssssssssccssssc" />
</svg>
